<?xml version="1.0" standalone="no"?>
<!DOCTYPE svg PUBLIC "-//W3C//DTD SVG 1.1//EN" "http://www.w3.org/Graphics/SVG/1.1/DTD/svg11.dtd">
<svg xmlns="http://www.w3.org/2000/svg" id="Layer_2" data-name="Layer 2" viewBox="0 0 6163.03 1276.02" width="6163.02978515625" height="1276.02001953125">
  <defs>
    <style>
      .cls-1 {
        fill: #fff;
        stroke-width: 0px;
      }
    </style>
  </defs>
  <g id="Layer_2-2" data-name="Layer 2">
    <g>
      <g>
        <path class="cls-1" d="M537.64,155.84L194.86,8.75l-56.35,11.99,399.13,135.1ZM536.82,170.67L83.61,25.85,16.53,43.39l520.29,127.28ZM1110.12,65.22l-1.33,954.76-553.73,254.62v-274.37l334.2-103.93-1.7-163.06-332.49,89.23v-217.2l334.83-94.72,1.07-158.58-335.9,87.59v-241.69l555.06-132.71v.06Z"/>
        <path class="cls-1" d="M572.47,155.84L915.25,8.75l56.35,11.99-399.13,135.1h0ZM573.3,171.93L1026.5,27.11l67.08,17.54-520.29,127.28ZM0,65.22l1.33,954.76,553.73,254.62v-274.37l-334.2-103.93,1.7-163.06,332.49,89.23v-217.2l-334.83-94.72-1.07-158.58,335.9,87.59v-241.69L0,65.16v.06Z"/>
      </g>
      <path class="cls-1" d="M1498.8,844.34c.02,2.42.03,4.85.05,7.27.38.42.48.82.31,1.19-.16.36-.31.54-.46.54-2.94-1.46-1.73-4.21-1.76-6.38-.12-10.88,0-21.76,0-32.64,0-265.64,0-531.29.07-796.93,0-3.72-1.47-7.8,1.5-11.18l.59.57c3.77,5.11,2.5,11.06,2.5,16.68.08,103.07.06,206.14.06,309.22,0,164.73.02,329.47-.07,494.2,0,5.88,1.52,12.18-2.78,17.45h-.01Z"/>
      <path class="cls-1" d="M1498.71,853.35c.03-.58.08-1.16.14-1.73.57.65,1.13,1.3,1.69,1.96-.61-.07-1.22-.15-1.84-.22h.01Z"/>
      <path class="cls-1" d="M4016.73,21s.02.01.03.02c.03.02.05.03.08.05l-.11-.07Z"/>
      <path class="cls-1" d="M3633.82,541.51s.03.06.05.09c.02.02.03.04.04.06l-.09-.15Z"/>
      <path class="cls-1" d="M3197.34,5.51c-46.43,0-92.86.04-139.29,0-2.18,0-4.17.46-6.18,1.06l.05-.09c-.77.54-1.53,1.09-1.76,2.09-1.83,1.33-2.65,3.37-3.67,5.27-1.68,1.46-2.55,3.49-3.69,5.33-.8.55-1.55,1.12-1.62,2.19-1.97,1.24-2.85,3.23-3.61,5.31-2.01,1.37-2.89,3.52-3.82,5.63-.52,1.06-.92,2.22-1.6,3.18-51.42,73.19-102.9,146.35-154.29,219.56-15.44,22-30.65,44.16-45.96,66.24,0,0,0,.01,0,.02,0-.01,0-.02,0-.04-5.63,4.86-8.02,12.4-14,17.78-1.62-2.18-2.88-3.82-4.07-5.5-15.14-21.41-30.18-42.9-45.44-64.23-4.54-6.35-8.38-13.23-13.96-18.81-2.25-3.54-4.35-7.17-6.76-10.6-46.41-66.11-92.9-132.17-139.27-198.32-7.24-10.33-15.12-20.23-21.25-31.32-3-4.07-7.12-4.63-11.92-4.61-41.42.16-82.84.1-124.26.1-3.62,0-7.25-.03-10.88-.07-2.86-.03-3.65,1.5-3.11,4.06,1.05.84,2.09,1.67,3.14,2.51h-.02s.01,0,.02,0c.01.97.46,1.61,1.42,1.86.27.97.55,1.95.83,2.93,1.03.77,2.05,1.55,3.08,2.32l.21-.2s0,.01,0,.02c-.07.07-.14.14-.2.21.26.98.51,1.95.77,2.92.98.35,1.44,1.08,1.5,2.09,1.97,1.26,3.24,3.03,3.8,5.3,1.89,1.31,3.16,3.06,3.84,5.25,5.51,6.16,10.29,12.85,14.5,19.95.98.38,1.41,1.13,1.47,2.13,1.99,1.24,3.25,3.01,3.84,5.27,3.78,3.67,6.78,7.92,9.14,12.62.99.35,1.42,1.1,1.48,2.11,2.01,1.24,3.28,3,3.8,5.3,1.96,1.26,3.2,3.04,3.78,5.29.99.34,1.44,1.07,1.52,2.08,2.02,1.22,3.21,3.04,3.82,5.28,2.49,1.93,4.34,4.32,5.37,7.32,2.01,1.22,3.15,3.08,3.8,5.28,1,.33,1.44,1.08,1.5,2.09,2,1.23,3.24,3.01,3.84,5.26,1.97,1.24,3.22,3.02,3.83,5.25.97.36,1.42,1.1,1.49,2.1,2,1.23,3.19,3.04,3.83,5.26,1,.35,1.43,1.1,1.49,2.11,2.02,1.22,3.21,3.04,3.83,5.27,2.01,1.21,3.22,3,3.86,5.22.99.35,1.44,1.08,1.51,2.09,2.01,1.23,3.23,3.03,3.83,5.28,2.51,1.93,4.31,4.36,5.3,7.38,2,1.22,3.2,3.02,3.83,5.24,1,.33,1.46,1.06,1.53,2.07,2.03,1.22,3.2,3.06,3.76,5.33,2.02,1.2,3.21,3.01,3.83,5.24.98.34,1.43,1.07,1.51,2.08,2.01,1.24,3.2,3.06,3.81,5.3,2.55,1.88,4.31,4.34,5.35,7.33,2.05,1.2,3.17,3.06,3.81,5.27.99.34,1.46,1.06,1.52,2.08,2.02,1.23,3.18,3.07,3.8,5.3,2.56,1.87,4.22,4.41,5.35,7.33,2.02,1.21,3.19,3.04,3.84,5.25,4.22,4.43,7.86,9.27,10.67,14.71,1.95,1.27,3.19,3.05,3.81,5.28,2.53,1.91,4.21,4.43,5.33,7.36,1.96,1.28,3.12,3.11,3.78,5.31,2.49,1.94,4.24,4.41,5.33,7.36,2.51,1.92,4.28,4.38,5.31,7.37,1.94,1.27,3.21,3.03,3.83,5.26,3.75,3.7,6.92,7.82,9.17,12.61,2.41,2,4.22,4.43,5.3,7.38,2.46,1.96,4.23,4.41,5.31,7.37,1.95,1.25,3.15,3.05,3.83,5.24.99.35,1.45,1.08,1.5,2.1,1.97,1.26,3.19,3.06,3.81,5.29,2.49,1.92,4.3,4.35,5.35,7.33,1.94,1.26,3.19,3.03,3.86,5.23,2.47,1.94,4.27,4.38,5.34,7.34,2.45,1.98,4.25,4.42,5.27,7.41,1.97,1.24,3.26,2.99,3.84,5.25,2.38,2.02,4.24,4.41,5.31,7.37,2.52,1.91,4.35,4.32,5.33,7.35,3.83,3.65,6.91,7.84,9.15,12.63,1.97,1.26,3.24,3.02,3.81,5.28,2.48,1.94,4.38,4.3,5.31,7.37,2.47,1.94,4.38,4.29,5.34,7.34,3.82,3.65,6.93,7.82,9.17,12.61,2,1.24,3.26,3,3.79,5.29.99.34,1.44,1.08,1.5,2.09,2.02,1.2,3.22,3.01,3.86,5.23,1.02.32,1.46,1.06,1.52,2.08,3.27,3,5.85,6.49,7.59,10.58,1.01.32,1.47,1.05,1.53,2.07,1.98,1.24,3.25,3,3.85,5.25,1.73,1.62,4.06,3.1,3.73,5.22-.59.7-1.01,1.54-1.38,2.41-.12.13-.24.26-.38.4-.12.47-.25.95-.38,1.43-.29.66-.61,1.29-1.02,1.85-.83.66-1.66,1.32-2.49,1.97-.18.69-.43,1.34-.74,1.94-.2.32-.39.65-.57.97-.64.93-1.46,1.73-2.48,2.39-.04,1.01-.49,1.75-1.47,2.11-2.26,5.85-7.59,9.75-9.93,15.55h0c-1.54,1.47-3.06,2.92-4.59,4.38-.63,2.22-1.83,4.03-3.77,5.32-2.35,4.72-5.4,8.93-9.18,12.61-.05,1.01-.51,1.74-1.48,2.1-.7,2.16-1.82,4.03-3.75,5.33-1.08,2.95-2.92,5.36-5.34,7.34-.73,2.15-1.92,3.97-3.87,5.23-1.11,2.93-2.76,5.47-5.29,7.39-.64,2.21-1.84,4.02-3.82,5.27-1.08,2.96-2.76,5.48-5.32,7.37-.71,2.16-1.83,4.03-3.8,5.3-.06,1.01-.52,1.73-1.5,2.08-.6,2.24-1.85,4.02-3.78,5.31-1.17,2.89-2.83,5.43-5.41,7.28-.61,2.25-1.83,4.05-3.84,5.27-.06,1.01-.5,1.75-1.47,2.12h.01c-.64,2.2-1.81,4.03-3.77,5.3-.32,1.05-.64,2.09-.96,3.14.01,0,.02.01.03.02,0,0-.02,0-.02.01-1.47,1.4-2.93,2.79-4.4,4.19-.58,2.26-1.82,4.04-3.78,5.31-1.02,3-2.8,5.45-5.3,7.38-.62,2.23-1.79,4.07-3.83,5.27-1.01,3-2.87,5.39-5.33,7.35-1.07,2.96-2.76,5.47-5.3,7.37-.61,2.24-1.85,4.02-3.84,5.26-.57,2.26-1.84,4.02-3.78,5.31-.03,1.04-.51,1.75-1.52,2.07-.66,2.19-1.78,4.06-3.8,5.28-1.04,2.98-2.76,5.48-5.27,7.41-.72,2.16-1.86,4.02-3.84,5.27-.07,1.01-.54,1.73-1.53,2.05-.56,2.27-1.74,4.1-3.82,5.27-.6,2.25-1.81,4.05-3.81,5.29-.05,1.02-.5,1.75-1.51,2.07-.65,2.21-1.72,4.11-3.81,5.28-.64,2.21-1.77,4.08-3.78,5.31-.05,1.02-.51,1.75-1.51,2.08-.6,2.25-1.8,4.06-3.82,5.28-.08,1.01-.56,1.72-1.55,2.04-.58,2.26-1.75,4.09-3.82,5.27-.56,2.28-1.8,4.06-3.83,5.27-.05,1.02-.5,1.76-1.5,2.09-.59,2.25-1.74,4.09-3.76,5.33-2.3,4.75-5.41,8.92-9.11,12.66-1.06,2.97-2.8,5.45-5.35,7.34-.58,2.25-1.75,4.09-3.78,5.32-.05,1-.49,1.74-1.47,2.1-.71,2.16-1.87,4.01-3.87,5.22-.62,2.22-1.76,4.08-3.79,5.3-.07,1.02-.54,1.74-1.54,2.06-.6,2.25-1.82,4.04-3.82,5.28-.07,1-.51,1.73-1.49,2.08-.64,2.22-1.78,4.08-3.86,5.24-.63,2.23-1.76,4.09-3.78,5.32-.06,1.01-.5,1.74-1.49,2.09-1.76,4.09-4.36,7.56-7.64,10.55-.07,1.02-.54,1.74-1.55,2.05-.52,2.29-1.73,4.1-3.78,5.3-1.02,3-2.77,5.47-5.31,7.37-.59,2.25-1.73,4.11-3.83,5.27-.09.99-.51,1.74-1.49,2.09-.22,1.45-.84,2.63-2.27,3.23-.06,1.02-.53,1.74-1.54,2.06-.57,2.26-1.77,4.07-3.78,5.31-.06,1.01-.5,1.74-1.5,2.08-.59,2.25-1.81,4.05-3.83,5.26-.99,3.03-2.91,5.37-5.39,7.3-.6,2.25-1.74,4.1-3.76,5.34-.06,1-.49,1.74-1.47,2.1-.6,2.25-1.92,3.98-3.86,5.24-.58,2.26-1.81,4.06-3.8,5.3-.06,1.02-.51,1.75-1.51,2.08-.14.51-.32,1-.52,1.46-.92,1.16-1.84,2.32-2.76,3.48-.17.12-.33.25-.51.36-.04.16-.09.31-.14.47-2.62,3.32-5.23,6.65-7.81,10-.97.71-1.95,1.43-2.92,2.15-.05,1.01-.49,1.74-1.48,2.09-.54,2.3-1.87,4.01-3.88,5.22-.96,2.63-3.55,5.92,2.39,5.64,1.51-.08,3.02,0,4.53,0,43.48.06,86.96.1,130.44.17,3.02,0,6.04.01,8.95-.98.75-1.65,1.49-3.3,2.24-4.95.38-.51.53-.96.45-1.36.36-.19.71-.38,1.07-.57.06.65.13,1.31.2,1.96.53-.09,1.06-.19,1.58-.3.22-1.04.45-2.07.67-3.11,0,0,0,0,0,0,0,0,0,0,0,0h0s0,0,.01,0c.99-.77,1.99-1.54,2.98-2.31.05-1,.49-1.74,1.45-2.12.71-2.16,1.87-3.99,3.77-5.31,1.7-4.12,4.28-7.62,7.49-10.68.48-2.31,1.67-4.14,3.68-5.4.06-1.01.51-1.75,1.5-2.1h.01c.65-2.21,1.8-4.05,3.74-5.34l.63-3.02s0,0,0,0h0c1.02-.79,2.04-1.57,3.07-2.35.08-1,.55-1.71,1.52-2.06.28-1.4.86-2.6,2.23-3.26.02-1.03.47-1.77,1.45-2.14,1.57-2.81,3.15-5.63,4.72-8.44-.04.02-.07.05-.11.07.04-.04.08-.09.13-.13.91-.76,1.81-1.52,2.72-2.28.91-3.06,2.84-5.41,5.23-7.43.53-2.27,1.75-4.07,3.66-5.41.56-2.27,1.83-4.04,3.83-5.27.58-2.24,1.69-4.12,3.7-5.39.04-1.01.45-1.77,1.44-2.13.56-2.27,1.87-4.01,3.82-5.27.49-2.3,1.65-4.15,3.67-5.41.6-2.25,1.8-4.06,3.81-5.29.03-1.01.45-1.76,1.45-2.12.51-2.28,1.68-4.12,3.68-5.39.63-2.22,1.85-4.02,3.79-5.3.71-1.66,1.44-3.33,2.15-4.99,0,0,0,0,0,0h.01c.54-.08,1.07-.18,1.61-.29.06-1.01.54-1.72,1.51-2.06.65-2.19,1.83-4.02,3.71-5.36.59-2.25,1.82-4.04,3.77-5.32.23-1.02.48-2.03.72-3.05,1-.77,2.01-1.52,3.01-2.29.04-1.01.46-1.76,1.42-2.16.27-1.41.84-2.63,2.27-3.23.08-1.01.53-1.74,1.52-2.08.25-1,.49-2,.73-2.99.99-.34,1.46-1.06,1.46-2.11h0c.53-.07,1.05-.15,1.57-.25.22-1.02.44-2.02.66-3.04.97-.35,1.4-1.08,1.47-2.07.53-.04,1.06-.12,1.59-.23.09-.99.53-1.72,1.5-2.07.22-1.01.43-2.02.66-3.03.52-.05,1.04-.15,1.54-.28.04-1.02.49-1.75,1.47-2.11.26-1.03.53-2.08.78-3.12,0,0,.02-.01.03-.02.98-.73,1.97-1.47,2.95-2.2.57-2.24,1.66-4.12,3.64-5.42.97-3.02,2.78-5.45,5.22-7.44,1.68-4.14,4.25-7.65,7.54-10.64,1.96-4.97,5.18-9.08,8.89-12.85.47-2.32,1.7-4.12,3.75-5.34.96-3.02,2.82-5.42,5.15-7.5,1.69-4.12,4.4-7.54,7.48-10.69.98-3.02,2.69-5.52,5.24-7.43.62-2.21,1.7-4.11,3.67-5.4.77-1.66,1.55-3.32,2.32-4.98,0,0,0-.01.01-.02,1-.77,2.02-1.55,3.03-2.32.25-1,.5-2,.75-3,.98-.8,1.97-1.59,2.95-2.39.24-1,.5-2,.75-3,1.03-.75,2.05-1.52,3.07-2.27.23-1.01.47-2.02.7-3.03,1-.34,1.42-1.09,1.41-2.13,0,0,0,0,.01-.01,0,0,.01-.02.02-.03.51-.07,1.03-.15,1.54-.23.26-1.05.51-2.1.76-3.16,0,0,.01,0,.02,0,.97-.72,1.95-1.45,2.92-2.17.56-2.25,1.6-4.18,3.64-5.44.03-1.03.45-1.77,1.46-2.12.62-2.24,1.84-4.03,3.84-5.26.52-2.27,1.65-4.14,3.64-5.43.28-1.05.57-2.09.85-3.14,0,0,0-.01,0-.02,1.48-1.41,2.96-2.83,4.43-4.23.55-2.26,1.78-4.06,3.75-5.33.22-.9.43-1.8.64-2.7,0-.01,0-.02,0-.04,1.04-.88,2.06-1.76,3.1-2.63.19-2.23,1.89-3.59,3.14-5.16,3.21-4.03,3.25-4,6.5,1.39,1.95,1.33,3.09,3.2,3.6,5.47,1.96,1.26,3.2,3.05,3.8,5.29,2.49,1.96,4.29,4.41,5.23,7.45,1.92,1.3,3.21,3.06,3.75,5.33,1.93,1.3,3.14,3.1,3.74,5.34,2.33,2.07,4.21,4.46,5.2,7.47,1.95,1.31,3.13,3.14,3.66,5.41,1.95,1.28,3.2,3.07,3.72,5.35,1.99,1.27,3.2,3.07,3.74,5.35,2.43,1.99,4.3,4.38,5.25,7.42,2,1.25,3.19,3.07,3.74,5.34,5.05,5.47,9.09,11.65,12.73,18.1,1,.37,1.44,1.12,1.45,2.15,1.92,1.32,3.21,3.07,3.73,5.36,1.95,1.29,3.23,3.04,3.76,5.33,1.9,1.31,3.15,3.09,3.77,5.31,2.46,1.99,4.21,4.47,5.17,7.5,1.96,1.29,3.14,3.12,3.71,5.37,1.98,1.26,3.17,3.07,3.76,5.31,1.01.35,1.45,1.09,1.48,2.12,2,1.25,3.21,3.07,3.72,5.36,2.05,1.23,3.23,3.06,3.71,5.37,1.99,1.24,3.25,3.01,3.77,5.3,1.01.34,1.45,1.08,1.5,2.1,3.27,3.02,5.69,6.64,7.46,10.71,1.98,1.27,3.2,3.07,3.73,5.35,2,1.26,3.17,3.09,3.76,5.33,2.5,1.95,4.17,4.48,5.25,7.43,1.97,1.27,3.18,3.08,3.75,5.33,1.97,1.29,3.16,3.12,3.69,5.39,2.5,1.95,4.25,4.43,5.22,7.45,2.01,1.25,3.14,3.12,3.72,5.36,1.96,1.27,3.2,3.05,3.75,5.32.99.37,1.41,1.12,1.45,2.14,1.97,1.29,3.18,3.1,3.72,5.37,1.97,1.28,3.19,3.08,3.74,5.35,1.96,1.27,3.16,3.08,3.79,5.3,3.73,3.75,6.65,8.07,8.9,12.85,1.97,1.28,3.2,3.07,3.76,5.33,2.51,1.94,4.21,4.45,5.22,7.45,1.98,1.29,3.1,3.15,3.7,5.38,2,1.25,3.22,3.05,3.77,5.32,3.78,3.71,6.75,7.98,8.99,12.77,1.96,1.28,3.18,3.08,3.74,5.34,3.8,3.69,6.78,7.95,9.01,12.75,1.98,1.28,3.07,3.17,3.71,5.37,1.96,1.3,3.1,3.15,3.67,5.39.99.35,1.46,1.07,1.5,2.1,1.98,1.27,3.15,3.11,3.75,5.35,1.97,1.28,3.15,3.1,3.72,5.35,1,.34,1.44,1.08,1.49,2.1,2.02,1.24,3.22,3.05,3.78,5.32,3.15,3.13,7.17,2.6,11.05,2.6,39.18.02,78.36.06,117.54.02,3.99,0,8.01.59,11.98-.25.27.64.75,1.06,1.46,1.23,1.31-.69,2.62-.67,3.92.03l-.02-.02c4.91-2.02,2.72-4.31.47-6.6-.17-1.03-.92-1.62-1.69-2.19-1.21-1.75-1.93-3.85-3.73-5.15-.23-.96-.93-1.54-1.65-2.13l.04.06c-1.31-1.75-2.09-3.89-3.82-5.35-1.01-1.9-1.84-3.94-3.67-5.26-.21-.97-.93-1.56-1.66-2.13l.05.08c-1.26-1.8-2.06-3.92-3.8-5.38-1-1.91-1.84-3.94-3.66-5.27-.23-.97-.93-1.55-1.69-2.1-1.22-1.79-1.99-3.88-3.76-5.28-.95-1.94-1.75-3.99-3.67-5.24-.14-1.04-.88-1.63-1.7-2.14-1.12-1.84-1.91-3.93-3.75-5.25-.85-2.01-1.68-4.03-3.63-5.27-.11-1.07-.85-1.66-1.7-2.14-1.07-1.84-1.85-3.9-3.68-5.2-.21-.97-.92-1.55-1.66-2.11l.05.08c-1.25-1.79-2.07-3.89-3.77-5.38-1.05-1.91-1.87-4-3.75-5.33-1.05-2.97-3.34-5.02-5.35-7.3-.98-1.94-1.77-4.01-3.68-5.27-.15-1.04-.89-1.62-1.69-2.15-1.16-1.83-1.94-3.92-3.76-5.26-.89-1.99-1.71-4.01-3.65-5.26-.12-1.06-.87-1.64-1.69-2.15-1.12-1.85-1.92-3.93-3.75-5.28-.89-2-1.69-4.04-3.67-5.25-.09-1.07-.82-1.65-1.66-2.15-1.12-1.85-1.9-3.95-3.76-5.27-1.05-2.96-3.39-4.98-5.31-7.31-1.06-1.9-1.84-4-3.73-5.29-.19-.98-.9-1.57-1.66-2.11-1.21-1.81-2-3.9-3.76-5.31-.97-1.93-1.76-3.98-3.67-5.23-.13-1.04-.86-1.61-1.67-2.14-1.14-1.84-1.95-3.91-3.74-5.29-.94-1.96-1.71-4.04-3.7-5.24-.08-1.08-.84-1.65-1.66-2.18-1.11-1.82-1.91-3.85-3.66-5.21-.28-.92-.97-1.5-1.66-2.1l.03.05c-1.01-.9-.64-2.76-2.13-3.33-.11-1.04-.84-1.6-1.67-2.09-1.09-1.83-1.87-3.89-3.68-5.2-.23-.96-.94-1.55-1.7-2.09-1.18-1.8-2.03-3.84-3.69-5.32-1.04-1.89-1.84-3.94-3.69-5.26-.21-.97-.92-1.56-1.66-2.11-1.22-1.8-2.04-3.87-3.73-5.33-1.04-1.88-1.81-3.97-3.71-5.24-.16-1.01-.89-1.59-1.67-2.13-1.17-1.82-2-3.87-3.71-5.31-1.01-1.91-1.77-4-3.71-5.22-.12-1.04-.85-1.63-1.66-2.14-1.12-1.82-1.93-3.86-3.67-5.24-.29-.9-.98-1.49-1.67-2.07-1.3-1.74-2.11-3.82-3.74-5.33-1.09-1.85-1.89-3.91-3.68-5.26-.25-.95-.95-1.54-1.67-2.12l.04.06c-1.29-1.75-2.08-3.88-3.79-5.35-1.03-1.89-1.84-3.94-3.67-5.26-.21-.98-.92-1.57-1.69-2.1-1.18-1.82-2.01-3.88-3.73-5.32-1.01-1.9-1.79-3.96-3.69-5.22-.16-1.03-.88-1.62-1.69-2.13-1.14-1.84-1.95-3.91-3.74-5.29-.93-1.96-1.71-4.03-3.68-5.24-.1-1.08-.84-1.66-1.69-2.16-1.08-1.84-1.88-3.87-3.67-5.2-.24-.96-.94-1.54-1.67-2.12-1.25-1.77-2.05-3.85-3.73-5.31-1.02-1.9-1.86-3.93-3.66-5.29-.25-.95-.94-1.54-1.69-2.09-1.24-1.77-1.99-3.9-3.79-5.26-.91-1.97-1.73-4.01-3.65-5.27-.13-1.04-.87-1.62-1.66-2.15-1.16-1.83-1.96-3.9-3.73-5.29-.93-1.96-1.75-4-3.65-5.27-.14-1.02-.88-1.6-1.67-2.15-1.17-1.77-1.94-3.84-3.69-5.2-.28-.91-.97-1.5-1.65-2.1l.03.05c-1.02-.91-.65-2.74-2.12-3.35-.15-1.01-.87-1.57-1.67-2.07-1.12-1.82-1.91-3.86-3.67-5.21-.26-.92-.95-1.5-1.64-2.1-1.31-1.73-2.09-3.84-3.77-5.3-1.05-1.89-1.85-3.94-3.69-5.27-.21-.95-.93-1.53-1.63-2.13l.04.06c-1.32-1.76-2.11-3.88-3.8-5.38-1.06-1.87-1.86-3.93-3.69-5.24-.23-.95-.92-1.54-1.67-2.09-1.23-1.78-2.04-3.86-3.74-5.3-1.01-1.9-1.78-3.98-3.7-5.23-.12-1.03-.87-1.61-1.65-2.16-1.16-1.78-1.94-3.84-3.67-5.21-.29-.92-.99-1.5-1.68-2.1l.03.05c-1.02-.89-.64-2.76-2.15-3.31-.09-1.04-.82-1.6-1.64-2.09-1.09-1.84-1.88-3.9-3.69-5.22-.22-.96-.93-1.54-1.67-2.11l.05.08c-.96-.96-.6-2.79-2.09-3.4-.13-.99-.85-1.55-1.59-2.09-.78-1.88-2.88-3.29-2.03-5.73,1.35-.82,1.39-1.93.84-3.17.06-.02.11-.05.18-.07,1.41-1.43,2.82-2.86,4.23-4.29.71-2.17,1.97-3.94,3.88-5.22.98-3.03,2.72-5.51,5.3-7.39.66-2.2,1.87-4,3.81-5.28.98-3.03,2.87-5.4,5.32-7.36.64-2.21,1.82-4.03,3.74-5.34,1.01-3.01,2.85-5.42,5.38-7.31.64-2.22,1.88-4,3.81-5.29.02-1.04.48-1.77,1.49-2.1.63-2.24,1.87-4.02,3.9-5.21.06-1.02.51-1.74,1.52-2.06.59-2.23,1.76-4.06,3.71-5.36,1.06-2.98,2.91-5.37,5.38-7.31.55-2.26,1.71-4.11,3.71-5.37,1.08-2.96,2.91-5.37,5.38-7.3.58-2.25,1.76-4.08,3.78-5.31,1.09-2.95,2.94-5.34,5.36-7.32.54-2.28,1.75-4.09,3.75-5.35.05-1.02.53-1.73,1.52-2.06.67-2.19,1.87-4,3.84-5.25,1.03-2.99,2.74-5.49,5.28-7.4.69-2.19,1.89-4,3.84-5.26,1.01-3.01,2.75-5.49,5.32-7.37.69-2.18,1.89-3.99,3.81-5.28,1-3.01,2.78-5.46,5.34-7.34.65-2.21,1.82-4.04,3.77-5.33.03-1.03.49-1.75,1.49-2.09.7-2.18,1.83-4.04,3.87-5.23.63-2.21,1.78-4.07,3.73-5.36.02-1.03.47-1.76,1.48-2.1.65-2.22,1.89-4.01,3.9-5.21.06-1.01.53-1.73,1.52-2.05.59-2.24,1.71-4.11,3.72-5.36.67-2.22,1.89-4.01,3.89-5.23.06-1.03.53-1.74,1.53-2.06.54-2.27,1.72-4.1,3.72-5.36.63-2.24,1.87-4.01,3.88-5.23.04-1.03.49-1.76,1.51-2.08.56-2.27,1.75-4.09,3.76-5.33,1.09-2.95,2.93-5.36,5.38-7.31.56-2.27,1.7-4.13,3.75-5.35.08-1.02.56-1.72,1.56-2.03.68-2.19,1.88-4,3.8-5.29.57-2.26,1.8-4.05,3.78-5.32.05-1.03.53-1.74,1.54-2.05.68-2.19,1.86-4.01,3.84-5.25,1-3.01,2.71-5.51,5.3-7.38.65-2.2,1.78-4.07,3.77-5.32,1.07-2.96,2.74-5.5,5.36-7.33.63-2.21,1.79-4.06,3.75-5.34.03-1.03.49-1.75,1.49-2.09.64-2.22,1.83-4.04,3.88-5.22.65-2.21,1.74-4.1,3.75-5.35.03-1.02.47-1.76,1.47-2.1.66-2.21,1.83-4.04,3.88-5.22.64-2.2,1.71-4.1,3.71-5.37.04-1.04.53-1.74,1.55-2.04.6-2.26,1.86-4.03,3.89-5.22.05-1.02.5-1.75,1.5-2.08.6-2.24,1.73-4.1,3.78-5.31.61-2.24,1.84-4.03,3.84-5.26.04-1.02.47-1.76,1.48-2.1.56-2.27,1.78-4.07,3.78-5.31,1.07-2.97,2.9-5.38,5.36-7.33.52-2.3,1.71-4.13,3.77-5.34.07-1,.53-1.72,1.52-2.05.67-2.2,1.88-4.01,3.84-5.26.57-2.26,1.74-4.1,3.79-5.31.06-1.02.52-1.75,1.53-2.06.69-2.18,1.88-4,3.82-5.27.57-2.25,1.75-4.08,3.79-5.3.07-1.03.56-1.73,1.58-2.02.6-2.24,1.74-4.09,3.75-5.33.56-2.27,1.76-4.08,3.77-5.32.06-1.03.56-1.73,1.58-2.02.61-2.22,1.7-4.11,3.73-5.35.05-1.01.48-1.75,1.47-2.1.65-2.22,1.91-3.98,3.91-5.19.64-2.21,1.76-4.08,3.75-5.34.04-1.03.51-1.75,1.52-2.07.59-2.26,1.84-4.03,3.86-5.24.6-2.24,1.69-4.12,3.71-5.38.05-1.02.51-1.75,1.52-2.07v.05c.27-.98.53-1.95.8-2.93-.34-.26-.69-.52-1.03-.78-.17.07-.32.16-.48.24.18-.18.36-.36.54-.55.12.21.24.42.38.64l.56.41c1.03-.76,2.07-1.51,3.1-2.27.07-.99.48-1.75,1.47-2.1.23-1.44.81-2.65,2.24-3.26.05-1.04.53-1.76,1.55-2.06.65-2.22,1.84-4.03,3.82-5.28.05-1.01.49-1.75,1.49-2.09.75-1.7,1.5-3.39,2.25-5.09,0,0,0,0,0,0,0,0,.01,0,.02,0,.51-.12,1.02-.2,1.53-.26h0c-.03-2.06,3-3.25,1.64-5.66-.31-.13-.57-.35-.83-.35Z"/>
      <path class="cls-1" d="M2472.69,35.94c-.07-.32-.14-.63-.21-.94.16.14.31.27.48.41.04.02.07.05.11.07-.14.15-.26.31-.38.47Z"/>
      <path class="cls-1" d="M2475.1,53.23s.01-.04.02-.06c.01,0,.02.02.03.02-.02.01-.03.02-.05.03Z"/>
      <path class="cls-1" d="M2614.54,211.09s-.05-.08-.09-.11c.05-.02.1-.03.15-.05-.02.06-.04.11-.06.17Z"/>
      <path class="cls-1" d="M2722.51,367.94c1.1.54,1.84,1.33,2.03,2.46-.67-.82-1.35-1.64-2.03-2.46Z"/>
      <path class="cls-1" d="M2520.39,813.05c-.38.31-.78.58-1.18.84.41-.66.74-1.41,1.02-2.26.12-.1.24-.21.37-.32-.1.59-.18,1.17-.21,1.73Z"/>
      <path class="cls-1" d="M2546.23,787.7c-.02-.1-.04-.19-.07-.29-.1-.37.54-1.07.99-1.44.32-.26.61-.54.91-.81-.6.86-1.21,1.71-1.83,2.54Z"/>
      <path class="cls-1" d="M2556.4,829.33h-.21c.1-.05.2-.11.3-.16-.05.1-.09.16-.09.16Z"/>
      <path class="cls-1" d="M2638.54,655.77c.15-.41.3-.81.44-1.23.26-.81.93-1.54,1.62-2.19-.68,1.14-1.37,2.28-2.06,3.42Z"/>
      <polygon class="cls-1" points="2701.59 697.44 2701.59 697.44 2701.59 697.43 2701.59 697.43 2701.59 697.44"/>
      <path class="cls-1" d="M2706.06,559.79c.88-3.15,2.31-5.94,5.1-8-1.74,2.64-3.44,5.31-5.1,8Z"/>
      <path class="cls-1" d="M2735.46,515.75c1-1.74,2.07-3.44,3.14-5.15-1.02,1.73-2.07,3.45-3.14,5.15Z"/>
      <path class="cls-1" d="M2754.19,254.47c0,.13-.02.26-.02.38h.01s0,.02-.01.03c0,0,0,0,0-.01-.17-.11-.33-.23-.5-.35.17-.01.35-.03.53-.06Z"/>
      <path class="cls-1" d="M2750.5,437.86c-.23-1.17-.75-2.28-1.79-3.32,0-.03.01-.07.02-.1,1.22.86,2.12,2.28,1.77,3.43Z"/>
      <path class="cls-1" d="M2753.53,342.8c-.82-.6-1.13-1.52-1.19-2.49.38.84.78,1.67,1.19,2.49Z"/>
      <path class="cls-1" d="M2752.64,478.28c.15.7.38,1.41.53,2.11-.21-.21-.44-.42-.71-.63h0s-.06-.08-.09-.13c.03-2.44.07-4.69.1-7.13v-.03c.94-1.32,1.43-2.71,1.64-4.14.08.68.12,1.36.13,2.04-.35.66-.72,1.31-1.12,1.94-.73,1.94-.86,3.92-.48,5.96Z"/>
      <path class="cls-1" d="M2821.51,340.1c-.06.01-.13.03-.19.04-.29.29-.58.53-.85.74.28-.24.57-.49.87-.77.07-.15.16-.3.24-.45-.02.15-.05.29-.07.44Z"/>
      <path class="cls-1" d="M2824.31,429.11c-.03-.08-.07-.15-.1-.23.04.03.07.07.1.1v.13Z"/>
      <path class="cls-1" d="M2826.07,435.06c-.02-.22-.02-.45-.06-.67-.01-.05-.02-.09-.04-.13.05.06.09.12.15.17-.02.21-.03.42-.05.63Z"/>
      <path class="cls-1" d="M2829.68,478.5c-.04-.08-.09-.16-.13-.25.16.13.32.26.48.39-.12-.05-.23-.1-.35-.15Z"/>
      <path class="cls-1" d="M2832.2,392.55s.04-.03.05-.04c.03,0,.06,0,.09,0-.05.01-.09.03-.14.04Z"/>
      <path class="cls-1" d="M2835.98,492.83c.24-.23.46-.48.65-.8.05-.34.08-.68.1-1.01.11.48.21.96.27,1.46-.06.76-.02,1.45.09,2.1-.44-.54-.81-1.11-1.11-1.74Z"/>
      <path class="cls-1" d="M2843.53,502.72c-.18,0-.34.03-.52.05-.02-.2-.04-.39-.08-.58.45.38.9.77,1.33,1.17.14.23.29.46.43.69-.4-.43-.78-.87-1.16-1.33Z"/>
      <path class="cls-1" d="M3107.95,849.98h0c20.65,2.03,41.36.25,62.03.94,3.64.12,7.43-.97,10.97.45.14.4.26.81.37,1.22-2.41-2.01-5.53-.95-8.27-.97-21.7-.12-43.4-.07-65.1-.07h0s-.09-.01-.13-.01c.18-.16.35-.34.52-.55-.34-.73-.74-1.3-1.18-1.77.27.22.54.46.8.76Z"/>
      <path class="cls-1" d="M3072.32,844.05c8-3.31,16.71-1.33,23.97,3.37.03.02.07.03.1.05-11.18-.18-22.37-.02-33.55-.12,2.68-.7,5.79-1.78,9.48-3.31Z"/>
      <path class="cls-1" d="M2901.66,393.78c1.23-.56,2.52-1.54,3.97-2.9-1.38,1.82-2.6,2.75-3.97,2.9Z"/>
      <path class="cls-1" d="M3074.46,154.56c-.06,0-.11,0-.17,0,.42-.14.86-.12,1.32.13-.37-.03-.76-.07-1.15-.12Z"/>
      <path class="cls-1" d="M3077.1,77.13c0-.11,0-.21,0-.32.21.2.41.4.59.6-.2-.09-.39-.18-.6-.28Z"/>
      <path class="cls-1" d="M6162.95,848.56c.07-6.61.02-13.21,0-19.82-.09-30.93-.18-61.85-.28-92.78h-.03c-56.81-.05-113.62-.13-170.43-.15-91.87-.04-183.73-.04-275.6-.06q-8.95-.01-9.05-8.73v-2.72c-.07-89.11-.2-178.23-.2-267.35.01-147.42.12-294.85.1-442.27,0-2.78,1.46-6.03-1.5-8.36h0c-1.51-1.42-3.4-.99-5.16-.99-2.07,0-4.13,0-6.2,0-.14-.04-.28-.06-.42-.11-18.31-.46-36.62-.49-54.93.02-.06.01-.11.02-.17.04-2.75,0-5.49,0-8.24,0-.06-.01-.11-.03-.17-.04h-14.94v-.02s-.09.03-.13.05c-1.01,0-2.03,0-3.04,0-.04-.02-.07-.02-.11-.04h-18.58s-.09.02-.14.02c-3.95,0-7.91,0-11.86-.01-.06-.01-.12-.02-.18-.03-.65.01-1.31.02-1.96.03-.09,0-.18,0-.28,0-.58,0-1.16-.02-1.72.03-.41,0-.83.01-1.24.02,0,.1,0,.2,0,.3-.41.19-.79.47-1.11.91h.02s.43.43.43.43c.21.18.42.34.63.49,0,.11,0,.22,0,.33-.37-.41-.72-.83-1.08-1.25-2.47,2.55-1.23,5.73-1.23,8.58-.04,223.45,0,446.89,0,670.34,0,55.85-.16,111.71-.25,167.57l.73.04.73-.04h0c.41-.41.76-.85,1.06-1.32,1.54,1.17,3.25.84,4.98.3,7.31-2.56,14.86-.48,22.27-1.11.83-.07,1.67-.14,2.52-.23-2.58.79-5.28,1.26-8.23,1.18-5.7-.16-11.88-2.22-17.24,1.77,1.8.16,3.58.47,5.37.47,186.62-.05,373.24-.13,559.86-.22,2.09,0,4.19-.25,6.29-.39,0,0,0,0,0,0,.01,0,.02.02.03.02,3.03.62,6.07,1.23,9.04-.26,0,0,0,0,0,0,2.28-.92,1.61-2.95,1.63-4.61ZM5599.92,712c.06-.45.12-.91.19-1.36.07.45.01.89-.19,1.36ZM5613.84,449.37c-.01-.48-.02-.95-.03-1.43.08.48.1.95.03,1.43ZM5653.39,41.31c.62-.21,1.32-.34,2.08-.41.01.02.02.05.03.08.11.31.24.59.37.87-.95-.37-1.77-.53-2.48-.54ZM5659.85,45.38c.6.11,1.24.12,1.94,0-.67.18-1.32.19-1.94,0ZM5670.01,768.32c.36.07.69.22,1,.44-.33-.11-.66-.26-1-.44ZM5676.73,43.57c-.73-.61-1.46-1.09-2.18-1.47.96-.32,1.88-.71,2.74-1.19-.15.89-.32,1.78-.57,2.66ZM5686.23,766.65c-.1-.11-.19-.23-.3-.34.02,0,.04-.01.05-.02,0-.02,0-.03,0-.04.15.09.3.19.45.27-.08.04-.15.08-.21.14ZM5684.17,31.45c-.3.03-.56.09-.82.14.35-.46.9-.91,1.24-1.41,1.36.67,2.71,1.33,4,2.12-1.39-.08-2.87-.37-4.41-.85ZM5697.19,22.11c.38.82.85,1.59,1.41,2.31.01.02.03.03.04.05-.65-.52-1.12-1.22-1.75-1.76.09-.2.2-.4.3-.6ZM5702.16,28.56c-1.24-.12-2.33-1.65-3.48-2.55-.42.85-.88,1.6-1.38,2.27.25-1.29.64-2.55,1.38-3.74.55.69,1.17,1.32,1.87,1.86.75.41,1.6.73,2.36.84,0,.42,0,.83,0,1.25-.22.06-.46.1-.77.06ZM5704.8,7.59s-.03-.07-.04-.1c.12-.07.24-.17.36-.25-.11.12-.21.23-.32.35ZM6086.63,817.57c-.03-.13-.08-.27-.12-.4.14-.02.28-.04.42-.06,0,0,.01-.02.02-.02,0,0,0,0,0,.01-.1.17-.22.31-.32.47Z"/>
      <path class="cls-1" d="M5002.11,365.54s0,.01.01.02c0,0,0,0,0,0l-.02-.02Z"/>
      <path class="cls-1" d="M2009.82,475.64s-.03,0-.05,0c0,0,0,.01,0,.02l.05-.02Z"/>
      <path class="cls-1" d="M5580.72,853.56s0,0,.01,0c0,0,0,0-.01,0h0Z"/>
      <path class="cls-1" d="M5167.11,742.56c0-1.76-.38-3.52-.58-5.28.15-.46.22-.94.22-1.42-1.81-.03-3.63-.07-5.44-.07-141.1-.03-282.21-.03-423.32-.03-2.1,0-4.2.27-6.3.41v.9c-.29.01-.57.03-.86.04.46-.48.76-1.08.87-1.83-2.4-.16-4.83-.61-7.2-.41-4.58.39-5.92-1.79-5.45-5.91.13-1.19,0-2.41,0-3.62.01-80.05.02-160.11.04-240.16,0-10.79-.62-9.72,9.84-9.72,119.97-.03,239.93-.01,359.9-.04,3.01,0,6.02-.31,9.03-.47l.04-110.08-.02-.04c-9-1.33-18.07-.62-27.1-.62-22.92-.01-45.85.25-68.77.4.02.38.07.69.13.98,0-.01-.01-.02-.02-.03-2.69-.16-5.39-.44-8.08-.44-80.17-.04-160.35-.05-240.53-.05-2.4,0-4.79.28-7.19.43-.1.06-.2.11-.3.16.06-.06.12-.11.19-.17h0c-8.94-.15-17.88-.3-26.82-.45l-.46.52s.02.02.03.03c0,0-.02,0-.02-.01-.44-.25-.88-.52-1.28-.82.16.05.3.11.47.16.43-.27.85-.54,1.28-.81-.1-3.91-.29-7.82-.29-11.73,0-75.89.01-151.79.02-227.69,2.69-.23,5.38-.66,8.08-.66,139.58-.06,279.17-.09,418.76-.17,2.91,0,6.05,1.09,8.71-1.12l-.53-.55.02-.02v-.07c.74-.92.67-2.14.67-3.32,0-32.34-.05-64.69.04-97.03.11-.24.21-.48.32-.72-.18-2.77.51-5.69-.3-8.66,0-.13,0-.26,0-.38.02-4.51-1.2-6.89-6.07-6.42-1.79.17-3.62.03-5.43.03-83.89-.02-167.79-.05-251.68,0-5.73,0-11.51-.68-17.24.06-.76-.24-1.52-.51-2.28-.84l-.66.22c-.28.43-.6.75-.94.99-2.11-.23-4.23-.55-6.34-.55-85.79-.08-171.57-.1-257.36-.17-4.34,0-8.68-.1-13.03-.21-1.99-.67-4.24-1.2-6.33-.15-.18,0-.37,0-.55-.01l.04-.09c-.41.28-.81.55-1.21.83.11.1.21.2.31.3-.01.05-.02.11-.04.16-.48-.2-.87.05-1.16.7l.08-.06c.08,1.5.23,3.01.23,4.51.03,250.39.05,500.77.05,751.16,0,30.2-.14,60.4-.22,90.6,1.67.52,3.3,1.37,5.09.44,0,0,0,0,0,0,2.99.16,6,.46,8.99.46,185.71.02,371.42.01,557.13-.02,2.39,0,4.79-.31,7.18-.48,0,0-.01-.01-.02-.02.01,0,.02,0,.04,0,1.55.2,3.15.22,3.45-1.74.26-1.76.21-3.58.21-5.38,0-34.58,0-69.15-.05-103.72Z"/>
      <path class="cls-1" d="M5009.93,368.75c-.52.07-.62-.42-.92-.73.39.13.79.25.92.73Z"/>
      <path class="cls-1" d="M5008.26,367.54c.06.09.13.16.21.22-.58-.12-1.16-.29-1.74-.32-.21-.04-.42-.06-.63-.09.79-.08,1.55-.12,2.16.19Z"/>
      <path class="cls-1" d="M4965.7,409.76c-.43-.31-.68-.75-.67-1.36.24.42.46.87.67,1.36Z"/>
      <path class="cls-1" d="M4869.6,458.78c-.43.02-.85-.07-1.23-.27.41.13.82.22,1.23.27Z"/>
      <path class="cls-1" d="M4735.32,367.31s.09,0,.13-.01c-.01.03-.03.06-.04.09-.03-.02-.05-.04-.08-.06-.01,0-.03,0-.04,0,0,0,.02-.01.03-.02Z"/>
      <path class="cls-1" d="M5145.46,81.43c-.17.43-.34.87-.51,1.32-.17-.43-.33-.85-.48-1.27.36.03.69,0,1-.05Z"/>
      <path class="cls-1" d="M4934.4,93.17c-2.19,2.06-4.41,1.74-6.51.52,2.11-.3,4.28-.46,6.51-.52Z"/>
      <path class="cls-1" d="M4916.16,95.51c-1.71,1.03-3.68.91-6.17-.38,2.04.23,4.09.4,6.17.38Z"/>
      <path class="cls-1" d="M4719.15,123.79c1.86-1.99,4.29-1.6,6.7-1.35-.5-.02-1-.03-1.49,0-2.04.13-4.16-.09-5.21,2.24v-.89Z"/>
      <path class="cls-1" d="M4593.13,850.85c-.2-.11-.4-.26-.59-.44.14-.33.25-.67.31-1.05.03-.67-.03-1.33-.19-1.97.27.18.55.36.85.55v1.81l.03-.04c-.19.44-.33.82-.42,1.14Z"/>
      <path class="cls-1" d="M4644.47,818.68c.27.06.54.11.81.15-.29,0-.56-.06-.81-.15Z"/>
      <path class="cls-1" d="M4854,821.91c-1.44,1.09-2.94.29-4.42-.61,1.71.03,3.42.08,5.13.13-.24.15-.48.31-.71.49Z"/>
      <path class="cls-1" d="M4210.91,661.24c-2.38-.26-4.21-1.5-5.79-3.21-1.44-.16-2.74-.58-3.51-1.96h.01c-1.48-.11-2.75-.57-3.48-1.99-2.33-.38-4.16-1.6-5.68-3.35-1.46-.17-2.7-.69-3.38-2.11-1.48-.07-2.78-.5-3.56-1.89-2.35-.33-4.19-1.54-5.72-3.3-1.46-.13-2.73-.61-3.49-1.97-1.5-.06-2.77-.53-3.5-1.97-2.31-.41-4.22-1.49-5.74-3.28-1.44-.18-2.67-.71-3.41-2.06-1.51-.04-2.75-.55-3.51-1.95-2.32-.38-4.22-1.5-5.73-3.29-1.46-.11-2.77-.52-3.55-1.9-1.49-.09-2.74-.61-3.45-2.03-2.34-.37-4.27-1.42-5.74-3.29-1.44-.19-2.72-.63-3.45-2.02-1.5-.08-2.72-.64-3.46-2.02-2.34-.36-4.26-1.44-5.7-3.33-1.48-.09-2.78-.5-3.53-1.93-3.36-1.24-6.69-2.56-9.27-5.2-1.43-.18-2.74-.59-3.52-1.94-1.48-.11-2.71-.65-3.45-2.03-2.29-.18-4.16-2.23-6.66-1.47-.57,2.72-1.36,5.32-3.57,7.23-.39,1.58-.77,3.18-1.16,4.76,0,0,0,0-.01.01-.83.81-1.65,1.62-2.48,2.43-.16,1.45-.56,2.75-1.93,3.53-.11,1.48-.58,2.75-1.99,3.48-2.01,5.47-5.05,10.3-9.06,14.52-.93,3.06-2.84,5.42-5.31,7.37-.78,1.58-1.56,3.16-2.34,4.74-.02.03-.04.06-.06.09-1.09.78-2.19,1.55-3.27,2.32-.11,1.01-.59,1.72-1.6,2.02-.14.99-.68,1.65-1.64,1.94-7.35,9.62-15.83,18.1-25.5,25.39-.28.99-.94,1.53-1.94,1.67-4.73,5.16-10.21,9.36-16.36,12.69-1.26,1.99-3.13,3.1-5.37,3.69-.36,1-1.1,1.44-2.13,1.47-.66,1.41-1.89,1.96-3.35,2.13-1.43,1.86-3.28,3.03-5.59,3.46-.73,1.41-2.01,1.86-3.47,2-6.57,4.96-13.85,8.53-21.68,11.01-.95,1.32-2.32,1.63-3.83,1.59-1.37,1.69-3.33,1.83-5.27,2.02-.97,1.28-2.34,1.6-3.86,1.53-3.34,2.03-6.94,3.31-10.86,3.61-.12.42-.21.85-.28,1.29-.05-.06-.08-.13-.14-.2-2.3-.11-4.76-1.28-6.77.82-4.83,1.43-9.91,1.89-14.66,3.67l.17-.12c-2.79,1.53-5.89.44-8.83,1.06-26.68,5.58-53.54,5.61-80.49,2.48l.12.06c-6.59-1.74-13.39-2.28-20.04-3.65-2.05-2.16-5.18-.08-7.35-1.8l.15.09c-1.42-1.9-3.83-.7-5.53-1.69-1.83-2.62-5.19-.12-7.21-2.12l.08.03c-1.03-1.13-2.53-1.06-3.82-1.53-1.27-2.22-3.92-.65-5.52-1.95l.18.12c-2.68-2.12-6.08-2.47-9.09-3.75-.89-1.32-2.45-1.18-3.71-1.7-.81-1.51-2.47-1.28-3.76-1.82-2.06-1.83-4.79-2.36-7.17-3.55-.69-1.56-2.34-1.33-3.55-1.9-.73-1.43-2.4-1.19-3.52-1.93-.82-1.34-2.6-.96-3.59-2.02l.04.02c-1.78-1.3-3.6-2.56-5.65-3.43-1.52-1.66-3.36-2.8-5.5-3.47-.6-1.55-2.48-1.15-3.42-2.18l.04.03c-.61-.67-1.18-1.42-2.17-1.58-1.31-1.86-3.32-2.71-5.29-3.64-1.38-1.8-3.54-2.52-5.28-3.82-.58-.72-1.18-1.42-2.11-1.72l.19.18c-3-2.48-5.45-5.66-9.08-7.36-.44-.91-1.05-1.62-2.12-1.79l.21.21c-10.4-10.16-20.75-20.39-30.83-30.89-.21-1.01-.89-1.62-1.76-2.07-.39-.81-1.03-1.4-1.73-1.94-1.62-2.53-3.43-4.92-5.62-7.01-1.14-2.93-3.32-5.07-5.44-7.27-1.08-2.97-3.54-4.96-5.32-7.44-1.12-1.88-2.09-3.86-3.64-5.44-.81-1.04-.54-2.75-1.97-3.4-.16-.95-.89-1.5-1.52-2.13l.02.03c-1.06-.93-.69-2.75-2.07-3.5-.86-2.04-2.1-3.84-3.41-5.59l.03.05c-1.04-1.01-.69-2.76-1.96-3.64l.07.11c-.91-1.09-.59-2.84-1.98-3.66-.66-1.16-.45-2.8-1.88-3.54-.56-1.23-.36-2.86-1.86-3.58-.5-1.26-.28-2.91-1.84-3.61-.44-1.3-.29-2.88-1.73-3.7-.56-1.25-.39-2.84-1.78-3.68-.61-1.22-.45-2.81-1.75-3.72l.08.14c-.82-1.17-.61-2.79-1.71-3.83l.02.04c-1.71-1.32.08-4.16-2.18-5.24-.94-3.18-1.45-6.52-3.66-9.18l.14.19c-1.74-4.91-2.78-10.08-5.37-14.68-1.29-1.61.05-4.09-1.78-5.51-1.45-4.17-1.65-8.73-3.85-12.68l.14.19c-1.65-2.18.63-5.42-1.93-7.36-.98-1.75.06-4.04-1.45-5.64l-.42-.46.21-.59c-1.98-2.5,1.44-6.98-3.13-8.53-.08.87-.13,1.73-.15,2.59-.02-.81-.02-1.63.03-2.45-1.61-3.24.55-7.17-1.8-10.28-1.76-2.88.53-6.51-1.68-9.32-.5-.37-.55-.79-.16-1.27-.38-1.13-.99-2.23-1.12-3.38-1.8-16.18-3.2-32.4-2.99-48.67.22-16.81.64-33.65,4.13-50.22.76-9.89,2.02-19.69,5.34-29.11.63-7.55,2.35-14.83,5.49-21.74.25-4.5,1.45-8.72,3.76-12.6.87-5.21,2.36-10.21,5.15-14.75.12-1.97.3-3.92,1.99-5.3.2-3.43,1.63-6.35,3.68-9.03-.06-1.52.25-2.88,1.58-3.82,1.11-4.52,2.97-8.68,5.84-12.37,1.47-4.77,3.64-9.18,6.85-13.04.14-1.46.56-2.76,1.97-3.5.1-1.49.57-2.75,1.99-3.48.4-2.31,1.52-4.21,3.36-5.67.14-1.47.66-2.71,2.09-3.39.41-2.34,1.63-4.14,3.57-5.49.45-2.33,1.64-4.16,3.67-5.42.05-1.02.51-1.75,1.52-2.06.59-2.24,1.74-4.09,3.75-5.33,1.54-3.73,4.05-6.69,7.24-9.11.11-1.02.62-1.69,1.62-1.97,2.3-4.26,5.51-7.74,9.28-10.72.15-1.03.73-1.66,1.75-1.88.17-1.01.76-1.64,1.77-1.85.2-1.01.8-1.62,1.81-1.82.18-1,.74-1.64,1.75-1.87.21-1.01.83-1.6,1.84-1.79.23-1,.86-1.58,1.87-1.76.22-1.01.85-1.59,1.87-1.76.23-1.02.88-1.58,1.91-1.73,2.98-3.75,6.42-6.99,10.65-9.33.29-.99.97-1.51,1.97-1.63,4.2-4.5,9.1-8.06,14.58-10.84,1.3-1.96,3.13-3.15,5.42-3.65,1.37-1.91,3.22-3.06,5.5-3.56,3.64-3.4,7.87-5.81,12.57-7.41,3.66-3.87,9.23-4.53,13.2-7.89.4-.37.79-.74,1.18-1.12-.05.15-.1.3-.15.46,7.73,1.51,13.48-3.57,20.02-6l-.2.14c1.32-.55,2.88-.41,4.01-1.47l.42-.44.58.19h0c4.48-1.19,9.37-.95,13.4-3.75l-.18.12c2.18-1.66,5.37.55,7.35-1.87,2.25-1.08,4.71-.27,7.02-.71,31.61-6.15,63.29-5.38,95-.96l-.15-.1c3.48,1.67,6.98,2.04,10.53.24,0-.04-.02-.07-.03-.11.09.06.18.12.26.19,0,0,0,0-.01,0h-.03s.01,0,.01,0c0,0,0,0-.01,0,.08.06.17.11.26.17.06.04.13.09.19.13,2.09,1.37,4.46,1.58,6.91,1.46,0-.01-.02-.02-.02-.03,0,0,.02.01.02.02l.45.45.59-.24s.01,0,.02.01c0,0-.01,0-.02,0,2.32,1.87,5.08,1.93,7.86,1.98,1.54,1.59,3.54,1.57,5.55,1.49.16.45.3.9.41,1.36,1.69.14,3.37.28,5.06.42.18.45.31.91.4,1.39,1.69.12,3.39.25,5.08.37h.03s.03,0,.04,0c-.01,0-.03,0-.04,0h0c1.87,1.14,3.74,2.27,5.61,3.4,3.44.14,6.46,1.4,9.12,3.56,1.5-.01,2.86.31,3.74,1.68,1.61.28,3.2.57,4.8.87.84,1.32,2.17,1.69,3.61,1.84.83,1.41,2.19,1.79,3.73,1.85,1.99,1.54,3.96,3.07,5.94,4.61,1.48.08,2.78.51,3.5,1.96,4.26,1.45,7.94,3.82,11.06,7.06,2.26.59,4.1,1.76,5.28,3.83,1.02.07,1.74.52,2.05,1.54,3.7,1.55,6.61,4.11,9.14,7.16.85.26,1.7.53,2.55.79,2.27,2.31,4.52,4.61,6.78,6.92,6.19,6.32,13.11,11.97,17.93,19.55.98.3,1.51.98,1.62,1.99,2.55,1.84,4.45,4.2,5.53,7.18,1.01.33,1.47,1.07,1.52,2.09,2.03,1.27,3.16,3.14,3.63,5.45,2.85,2.32,4.51,5.43,5.75,8.8,1.84,1.47,2.97,3.37,3.34,5.7,2.22,1.85,3.33,4.3,3.82,7.09,1.4.81,1.72,2.16,1.81,3.63,1.38.81,1.74,2.14,1.84,3.61,1.96,2.08,2.89,4.65,3.46,7.38,2.06,1.09,3.75.71,5.6-.8,2.49-2.03,5.05-4.07,8.23-5.02,1.57-1.53,3.15-3.06,4.72-4.59,0,0,0,0,0,0h.01s-.01,0-.01,0c.94-.17,1.89-.35,2.83-.52,1.3-1.94,3.16-3.07,5.37-3.7.74-.95,1.48-1.89,2.22-2.84,0,0,0-.01,0-.02,0,.01,0,.02,0,.03,1.09-.25,2.18-.5,3.27-.75,1.32-1.95,3.14-3.14,5.41-3.67,1.29-1.97,3.1-3.19,5.41-3.67,1.39-1.85,3.24-3.01,5.45-3.62,1.31-1.97,3.21-3.06,5.45-3.62,1.33-1.92,3.18-3.06,5.41-3.66,1.35-1.9,3.19-3.09,5.47-3.59,1.35-1.87,3.1-3.16,5.35-3.73,1.38-1.89,3.22-3.07,5.51-3.55,1.31-1.95,3.17-3.1,5.42-3.65,1.34-1.93,3.16-3.14,5.47-3.6,1.3-1.93,3.07-3.18,5.33-3.74.39-.98,1.16-1.39,2.17-1.42h0c.64-1.4,1.85-1.97,3.29-2.2,1.35-1.87,3.15-3.1,5.37-3.71,2.83-2.25,3.02-5.14,2.01-8.32-1.39-.76-1.8-2.06-1.94-3.51-2.63-2.59-4.16-5.79-5.22-9.26-1.42-.73-1.91-1.99-1.99-3.48-2.55-2.58-3.29-6.12-5.42-9.08-1.38-1.91-2.29-3.49-3.57-5.49s-2.41-3.44-3.67-5.39c-.66-1.02-1.87-1.56-2.88-2.24-.01,0-.03-.01-.03-.02-.65-.84-.11-2.31-.84-3.1s-1-1.2-1.51-2.09c-1.14-1.99-2.32-3.52-3.93-5.17-.73-.75-1.01-1.19-1.55-2.05-1.22-1.96-2.4-3.46-4.01-5.09-.71-.72-.9-1.27-1.55-2.03s-.99-1.19-1.67-1.95-1.14-1.05-1.69-1.93c-1.65-2.65-3.57-4.76-5.97-6.77-.76-.64-1.05-1.13-1.73-1.86s-1.02-1.18-1.71-1.92-1.06-1.13-1.77-1.86-1.06-1.11-1.77-1.86-1.06-1.12-1.78-1.85-1.08-1.09-1.82-1.81-1.09-1.07-1.82-1.8-1.09-1.07-1.83-1.79-1.11-1.06-1.85-1.78-1.63-.77-1.85-1.77c-1-.16-1.65-.73-1.9-1.72-1-.17-1.63-.73-1.88-1.71-4.1-2.48-7.65-5.6-10.6-9.39-1-.12-1.7-.6-1.99-1.6-1.55-.8-3.11-1.6-4.66-2.4,0,0,0,0,0,0,0,0,.01,0,.02,0h.01c-1.44-1.66-2.87-3.33-4.31-4.99-.98-.13-1.68-.61-2.03-1.55-2.22-.66-3.97-1.93-5.18-3.92-1.06-.24-2.11-.48-3.15-.72.01,0,.03,0,.04-.01h-.06s0,.01,0,.01c0,0,0,0,0,0,0,0,0,.01.01.02,0,0-.01-.01-.02-.02-.13.04-.26.08-.39.1.85-1.44-.44-2.36-1.79-3.27l.06.04c-.57-.69-1.14-1.37-2.04-1.65-.72-1.35-2.49-1.02-3.43-2.03l.05.03c-.61-.68-1.2-1.39-2.13-1.67-1.41-1.7-3.32-2.64-5.29-3.52-.73-1.42-2.54-1.05-3.51-2.09l.04.03c-.6-.66-1.17-1.38-2.12-1.56-.67-1.38-2.33-1.14-3.38-1.91-2.7-2.39-6.05-3.65-9.17-5.3-.75-1.43-2.41-1.21-3.57-1.9-.84-1.38-2.58-1.08-3.69-1.95l.13.08c-.88-1.31-2.63-.99-3.7-1.94l.09.06c-.95-1.22-2.64-.93-3.74-1.85l.11.07c-.91-1.25-2.64-.93-3.69-1.91l.08.04c-.95-1.14-2.53-.96-3.66-1.71-.91-1.27-2.51-1.09-3.71-1.76-.9-1.38-2.55-1.17-3.83-1.76-2.59-2.17-5.91-2.54-8.95-3.61-1.23-2.15-3.93-.53-5.42-2.01l.14.09c-1.38-1.95-3.97-.45-5.52-1.91-3.3-2.1-7.19-2.49-10.82-3.64-1.44-1.78-3.98-.31-5.5-1.85l.09.05c-1.5-1.7-3.86-.53-5.53-1.62-1.95-2.41-5.09-.29-7.25-1.85-2.02-2.38-5.21-.19-7.41-1.87l.17.13c-5.84-2.36-12.17-2.44-18.2-3.88l.11.05c-7.95-2.27-16.18-2.62-24.32-3.57l-.51.31-.49-.33.02-.06c-5.3-2.75-11.25.45-16.6-1.82l.15.15c-1.13-1.26-2.64-1.19-4.14-1.19-21.89-.01-43.77-.01-65.66.01-1.74,0-3.66-.36-4.81,1.57.11.36.25.66.4.94-.21-.01-.41-.03-.62-.04-5.22.17-10.45.35-15.67.52-4.64,1.97-9.56,1.89-14.46,1.88-3.39,1.9-7.16,1.63-10.84,1.87-5.29,2.07-10.81,3.05-16.44,3.48-2.13,1.86-4.72,1.83-7.31,1.75-4.54,2.13-9.31,3.41-14.31,3.87-1.49,1.66-3.45,1.82-5.49,1.76-1.56,1.57-3.54,1.7-5.58,1.64-1.44,1.57-3.32,1.93-5.33,1.95-1.44,1.67-3.41,1.8-5.41,1.85-.96,1.32-2.33,1.63-3.86,1.52-1.42,1.59-3.27,2.01-5.29,2.01-2.54,2.25-5.63,3.24-8.88,3.85-.88,1.38-2.24,1.71-3.76,1.66-.9,1.3-2.22,1.68-3.71,1.7-.82,1.42-2.14,1.8-3.67,1.76-.87,1.32-2.15,1.78-3.66,1.77-.84,1.38-2.15,1.78-3.67,1.76-3.07,2.81-6.83,4.32-10.68,5.68-.8,1.4-2.11,1.79-3.59,1.86-2.57,2.65-5.74,4.24-9.24,5.24-.7,1.38-1.91,1.94-3.36,2.12-1.45,1.85-3.84,1.95-5.65,3.39-1.23.98-1.93,1.9-3.36,2.12-1.39,1.85-3.22,3.03-5.46,3.6-1.35,1.92-3.19,3.08-5.47,3.58-.35,1-1.07,1.46-2.1,1.5-1.28,1.97-3.08,3.19-5.33,3.77-1.23,1.99-3.04,3.2-5.28,3.79-.32,1-1.03,1.47-2.05,1.55-1.16,2.04-2.97,3.25-5.16,3.95-2.49,3.09-5.5,5.52-9.08,7.24-3.82,4.1-7.87,7.92-12.65,10.91-.26.98-.9,1.54-1.89,1.71-.27.98-.93,1.54-1.92,1.71-.23,1.01-.89,1.57-1.9,1.73-.23,1.01-.85,1.6-1.87,1.76-5.08,5.8-10.4,11.36-16.29,16.35-.17,1.01-.72,1.66-1.74,1.89-.18,1-.75,1.64-1.74,1.89-.15.99-.69,1.65-1.67,1.92-.41.98-.83,1.97-1.24,2.95,0,0,0,0,0,0-3.25,3.21-6.5,6.43-9.75,9.64-1.69,3.6-4.16,6.58-7.23,9.09-3.03,5.28-6.65,10.12-10.89,14.5-.54,2.28-1.8,4.05-3.76,5.33-.53,2.27-1.71,4.1-3.63,5.44-.56,2.24-1.75,4.06-3.62,5.44-.44,2.32-1.67,4.12-3.55,5.51-.47,2.28-1.61,4.14-3.44,5.59-.21,1.43-.66,2.72-2.09,3.4-1.11,3.44-2.74,6.59-5.26,9.22-.15,1.45-.56,2.76-1.97,3.5-.54,2.75-1.75,5.15-3.81,7.09-5.96,12.76-11.91,25.53-17.87,38.3-.44,3.33-1.69,6.34-3.62,9.07-.23,1.65-.45,3.29-.68,4.94-.02.03-.03.06-.04.08-.45.06-.9.15-1.34.25-3.06,11.07-6.6,21.99-10.81,32.68-.25,4.51-1.51,8.74-3.57,12.74-.36,5.06-1.56,9.92-3.52,14.59-1.82,9.64-2.75,19.45-5.61,28.89-.18,3.98-.36,7.95-.53,11.93,0,.2,0,.4,0,.6-2.79-.6-2.18,2-2.37,3.66-.49,4.38.78,8.88-.82,13.2.43.45.41.87-.06,1.28-1.19,24.18-1.09,48.36,0,72.54h0c.57.92.66,1.86.09,2.81,1.03,9.95,1.08,20.02,3.68,29.78l-.09-.15c1.33,7.28,1.48,14.77,3.86,21.87l-.13-.2c1.58,2.22-.47,5.34,1.77,7.4,1.29,5.27,1.41,10.84,4.08,15.75.49.48.87.99,1.17,1.53.75,3.85,1.51,7.7,2.27,11.55,1.56,1.55,1.68,3.53,1.66,5.56,3.62,8.84,6.72,17.86,9.2,27.09,1.9,2.79,3.16,5.82,3.45,9.21,2.15,2.63,3.29,5.67,3.69,9.02,2.55,3.91,4.54,8.06,5.46,12.67,1.37.85,1.73,2.19,1.75,3.68,3.63,5.77,6.76,11.78,8.89,18.28,2.11,1.92,3.25,4.37,3.76,7.14,1.41.75,1.87,2.03,1.95,3.52,1.37.78,1.8,2.07,1.93,3.52,2.56,2.62,4.22,5.75,5.26,9.23,2.68,2.5,4.28,5.65,5.49,9.03,1.99,1.33,3.06,3.24,3.5,5.55,1.98,1.29,3.15,3.13,3.65,5.42,3.22,3.07,5.58,6.73,7.37,10.78,1.99,1.25,3.11,3.12,3.79,5.3,2.5,1.9,4.3,4.33,5.44,7.26,3.01,2.57,5.49,5.54,7.14,9.17,3.2,2.36,5.57,5.42,7.42,8.9.98.29,1.51.95,1.64,1.95,1.01.26,1.54.94,1.68,1.95,4.93,4.2,9.26,8.95,12.99,14.24.98.25,1.54.89,1.72,1.87,1,.21,1.61.81,1.81,1.82,1,.24,1.57.88,1.75,1.88,1.01.2,1.63.79,1.83,1.8,1.01.21,1.59.83,1.78,1.84,1.01.19,1.62.79,1.82,1.8,1.01.19,1.63.77,1.85,1.78,1.01.2,1.61.81,1.81,1.82,1,.19,1.64.75,1.88,1.75.99.18,1.61.75,1.84,1.74,4.07,2.54,7.5,5.78,10.54,9.46,1.03.13,1.68.69,1.92,1.71,1,.12,1.68.63,1.96,1.63l.04.03c2.88,1.25,5.1,3.3,6.9,5.83,1.05.08,1.73.61,1.99,1.64,1.01.1,1.69.61,1.97,1.61,3.6,1.67,6.61,4.11,9.19,7.1,2.16.73,3.98,1.92,5.23,3.88,2.95,1.09,5.47,2.77,7.34,5.34,2.25.57,4.09,1.74,5.39,3.69,2.27.51,4.11,1.68,5.44,3.62,2.35.38,4.13,1.66,5.56,3.49,1.46.17,2.7.69,3.38,2.11,2.27.48,4.18,1.57,5.62,3.42,1.47.15,2.72.65,3.41,2.07,2.31.39,4.2,1.53,5.75,3.26,1.45.16,2.72.62,3.45,2.02,1.47.08,2.78.48,3.57,1.87.73.01,1.4.13,2,.4.18.1.36.2.53.3.4.28.76.66,1.04,1.17.49.01.96.08,1.39.2.51.29,1.02.56,1.52.84.24.23.47.51.66.84.89.28,1.77.6,2.64.93,1.67.85,3.38,1.62,5.15,2.27,0,0,.02,0,.03.01,2.32,1.18,4.55,2.52,6.7,4.02,1.5-.01,2.83.36,3.7,1.72,1.49-.01,2.85.31,3.78,1.62,1.97.12,3.85.46,5.15,2.17,1.5-.04,2.89.21,3.84,1.55,1.99.06,3.92.28,5.3,1.98,1.51-.06,2.89.22,3.89,1.49,1.98.1,3.94.25,5.42,1.83,1.99.08,3.94.26,5.41,1.86,4.44.44,8.67,1.63,12.65,3.67,2.57-.05,5.05.23,7.11,2,5.58.52,11.05,1.55,16.26,3.71,11.55,1.73,23.1,3.47,34.65,5.2,24.66,1.15,49.33,1.22,73.99.15.28-.42.52-.87.74-1.33-.03,0-.07-.01-.1-.02.03,0,.06,0,.09,0,9.51.62,18.67-2.69,28.15-2.5,2.84-1.74,6.01-1.7,9.17-1.68,5.82-2.18,11.88-3.23,18.05-3.74,2.14-1.71,4.69-1.81,7.26-1.81,2.16-1.73,4.73-1.78,7.32-1.73,2.07-1.75,4.61-1.78,7.11-1.99,5.28-2.54,10.87-4.05,16.61-5.09,3.34-2.04,6.93-3.35,10.85-3.67,1.38-1.65,3.27-1.99,5.28-2.01,2.73-1.97,5.77-3.15,9.11-3.58,2.62-2.15,5.7-3.19,8.99-3.71.89-1.38,2.25-1.67,3.75-1.67.87-1.4,2.23-1.71,3.74-1.68.86-1.35,2.16-1.78,3.67-1.76,4.9-2.8,9.8-5.61,14.7-8.42,0-.02,0-.04,0-.07,0,.02.01.04.02.06,3.49-1.5,6.99-3.01,10.49-4.51.74-1.39,2.03-1.81,3.47-1.99,1.49-1.82,3.42-2.88,5.73-3.29.67-1.43,1.91-1.94,3.37-2.11,1.49-1.76,3.33-2.96,5.61-3.43,1.35-1.92,3.21-3.07,5.51-3.54,1.31-1.94,3.09-3.19,5.39-3.69,1.33-1.91,3.11-3.16,5.39-3.68,4.25-4.38,9.13-7.95,14.45-10.93.26-1.01.92-1.55,1.95-1.66,1.71-2.65,4.11-4.48,6.93-5.8.31-.97,1-1.48,1.99-1.6h.02c4.25-4.88,9.05-9.16,14.33-12.9.27-.96.91-1.52,1.88-1.71.23-.99.86-1.58,1.85-1.78.22-.99.81-1.6,1.8-1.83.21-.99.8-1.61,1.79-1.84.21-.98.81-1.58,1.78-1.81.16-.4.32-.8.48-1.2.22-.09.44-.18.68-.26l.04.02c2.02-1.43,3.86-3.03,4.85-5.39.03-.62.12-1.21.25-1.78,2.18-1.92,4.35-3.84,6.53-5.76.13-.99.65-1.67,1.63-1.96.74-2.19,2.07-3.89,4.08-5.04.08-1.01.53-1.74,1.53-2.07,1.06-2.98,2.91-5.37,5.43-7.26.59-2.23,1.84-4.01,3.69-5.38.12-1.5.8-2.63,2.12-3.37.03-1.02.46-1.76,1.46-2.12,1.17-3.41,2.77-6.56,5.5-9.01.09-1.48.58-2.74,1.95-3.51,1.63-4.68,3.81-9.08,6.9-12.99.48-3.68,2.48-6.78,4.15-9.92,1.82-3.44.45-5.58-1.94-7.7Z"/>
      <path class="cls-1" d="M4166.15,135.39c-.02.13-.29.13-.4.05-.07-.05-.1-.2-.03-.25.13-.1.46.05.44.2Z"/>
      <path class="cls-1" d="M4165.76,140.75c.11.03.21.19.16.29-.1.2-.61.29-.68.07-.07-.2.32-.41.52-.36Z"/>
      <path class="cls-1" d="M4157.15,145.15c.19.17-.1.5-.13.78-.15,1.17-2,.85-3.21.58-.45-.1-1.37.23-1.37-.24,0-1.57,3.46-2.24,4.71-1.13Z"/>
      <path class="cls-1" d="M4101.87,247.57c.09.01.18.03.27.04,0,0,0,0,0,0-.16.09-.3.18-.46.26.06-.1.12-.2.18-.3Z"/>
      <path class="cls-1" d="M4005.98,68.85c.36.38.75.73,1.12,1.09-.36-.04-.73-.07-1.11-.07v.03c-.49.98-1.04,1.83-1.62,2.57.3-.89.52-1.89.66-3.03-.65-.43-1.28-.88-1.91-1.35.86.36,1.8.63,2.86.76Z"/>
      <path class="cls-1" d="M3985.95,20.38c-.16-.39-.4-.76-.7-1.1.36.33.6.7.7,1.1Z"/>
      <path class="cls-1" d="M3985.91,44.91c-1.06-1.79-2.04-3.61-2.77-5.48.98,1.8,1.88,3.63,2.77,5.48Z"/>
      <path class="cls-1" d="M3973.32,91.64s-.03.01-.05.02c0-.02-.02-.04-.03-.05.03.01.05.03.08.04Z"/>
      <path class="cls-1" d="M3969.01,86.92c.26-.06.49-.15.73-.23.03.46.09.89.19,1.29-.08-.06-.15-.12-.23-.18-.42-.34-.84-.68-1.25-1.02.19.05.37.1.56.14Z"/>
      <path class="cls-1" d="M3962.44,133.36h-.01s-.02-.03-.03-.05c.01.02.03.03.05.05Z"/>
      <polygon class="cls-1" points="3956.98 131.58 3956.98 131.58 3956.97 131.57 3956.98 131.58"/>
      <path class="cls-1" d="M3931.24,8.66c-.45-.11-.91-.22-1.38-.29-.67-.11-1.34-.24-2-.39,1.15.15,2.42-.07,3.37.68Z"/>
      <path class="cls-1" d="M3922.2,6.39c1.06.1,2.12.2,3.18.31.26.14.52.3.78.49.24.26.51.43.8.56-.46-.12-.93-.23-1.38-.38-.72-.25-1.45-.45-2.19-.58-.63-.09-1.26-.12-1.89-.09.24-.13.47-.23.71-.31Z"/>
      <path class="cls-1" d="M3892.64,33.41c-.57.43-1.14.9-1.67,1.46-2.08,2.2-4.51,2.73-6.99,1.69,2.87-1.37,5.76-2.4,8.66-3.15Z"/>
      <path class="cls-1" d="M3878.99,10.81c.49.11.98.22,1.46.33-.47.21-.93.43-1.39.66-.43-.26-.86-.54-1.29-.83-.17-.04-.33-.08-.5-.12.57-.01,1.15-.03,1.72-.04Z"/>
      <path class="cls-1" d="M3869.85,45.64c.19,1.17.24,2.39,1.3,3.16.11.2.21.4.34.61.04-.16.09-.32.14-.47,5.63.38,8.03-3.25,9.72-7.77.08,1.11-.57,2.24-1.5,3.57-2.07,2.97-4.6,4.62-8.11,4.97h.02c-1.02,1.43-2.21,1.78-3.47,1.57.82-.3,1.61-.89,2.2-1.73.15-1.37-1.11-2.5-.64-3.91Z"/>
      <path class="cls-1" d="M3860.85,8.99s0,0,0,.01h0c.04.23.07.48.1.74-.61.44-1.31.45-2.19-.38.62-.27,1.34-.36,2.09-.37Z"/>
      <path class="cls-1" d="M3851.95,50.18s-.02.02-.03.02c-1.02.83-1.8.67-2.53.16.85,0,1.7-.08,2.56-.19Z"/>
      <path class="cls-1" d="M3847.6,17.24s-.05.07-.07.1c-.04,0-.09.02-.13.02.07-.04.14-.08.21-.13Z"/>
      <path class="cls-1" d="M3840.73,53.66c-.13.69-.41,1.4-1.1,2.11-.97-.22-1.94-.4-2.9-.53,1.41-.41,2.77-.89,4-1.58Z"/>
      <path class="cls-1" d="M3822.75,64.58c.18-.57.66-1.03.88-1.58.28-.69.61-1.3.97-1.85-.1.22-.2.42-.29.65-.62,1.59-1.34,3.02-2.17,4.32.23-.48.43-.99.61-1.54Z"/>
      <path class="cls-1" d="M3817.15,71.38c-1.34.92-2.84,1.65-4.48,2.21,1.61-.69,3.12-1.39,4.48-2.21Z"/>
      <path class="cls-1" d="M3800.28,78.86c-3.2,1.55-6.41,3.06-9.67,4.45,3.18-1.58,6.41-3.04,9.67-4.45Z"/>
      <path class="cls-1" d="M3774.66,93.02c.08-.06.15-.11.23-.17-1.26,1.07-2.49,2.17-3.7,3.3.9-1,2.04-2.03,3.47-3.13Z"/>
      <path class="cls-1" d="M3750.18,39.03c.03-.06.05-.12.08-.19.14.13.29.26.43.39-.18-.04-.36-.08-.54-.11,0-.03.02-.07.03-.1Z"/>
      <path class="cls-1" d="M3581.3,667.82c-.01-.28-.05-.54-.11-.8.12.24.15.5.11.8Z"/>
      <path class="cls-1" d="M3581.99,653.72c.24-.81.05-1.58-.33-2.32.57.67.88,1.47.33,2.32Z"/>
      <path class="cls-1" d="M3632.87,557.68c.73.95,1.16,2.05,1.19,3.2-.39-1.07-.79-2.14-1.19-3.2Z"/>
      <path class="cls-1" d="M3774.8,752.81c.64-.02,1.23.11,1.79.33-.6-.1-1.2-.21-1.79-.33Z"/>
      <path class="cls-1" d="M3796.75,824.34c1.88-1.14,2.54-.32,4.06,2.86-1.37-.96-2.72-1.92-4.06-2.86Z"/>
      <path class="cls-1" d="M3901.85,817.93c1.8-.67,3.82-.9,5.89-.58-1.91.37-3.87.58-5.89.58Z"/>
      <path class="cls-1" d="M3921.39,812.52c.31-.26.62-.51.94-.75.69-.52,1.49-.7,2.35-.74-1.1.49-2.19,1-3.29,1.49Z"/>
      <path class="cls-1" d="M3957.04,793.2c-2.23.9-3.72,3.25-6.22,3.6,2.1-.7,3.87-2.05,5.56-3.58.38-.45.79-.85,1.22-1.22.94.46,1.87.88,2.78,1.24-1.1.03-2.21.01-3.34-.04Z"/>
      <path class="cls-1" d="M3978.38,786.59c.28-.06.57-.11.85-.16.12.19.25.38.37.58-.41-.22-.81-.36-1.22-.42Z"/>
      <path class="cls-1" d="M3980.63,787.76c-.11-.1-.22-.19-.33-.28.32.12.64.21.96.28h-.63Z"/>
      <path class="cls-1" d="M3986.07,787.76h-1.51c.08-.01.16-.02.24-.04,1.17-.21,2.3-.52,3.42-.85.9.24,1.8.46,2.7.65-1.61.14-3.23.23-4.85.24Z"/>
      <path class="cls-1" d="M4038.68,775.07c-.57.64-1.23,1.18-1.81,1.81-2.26,1.23-4.62,2.09-7.26,1.81-.51.23-1.01.5-1.51.79.25-.35.49-.71.73-1.08,2.36.73,4.56.12,6.69-1.19.73-.47,1.45-.94,2.14-1.48.36-.25.72-.46,1.07-.71,0,0,0,0,0,0-.02.02-.04.04-.06.06Z"/>
      <path class="cls-1" d="M4056.82,769.63c-.53-.11-1.04-.17-1.56-.21.03,0,.07-.02.1-.03,1.2-.57,2.44-1.17,3.55-1.9.58-.17,1.15-.35,1.71-.55-1.29.86-2.56,1.75-3.81,2.69Z"/>
      <path class="cls-1" d="M4091.29,755.12c-.14.02-.27.04-.41.06.1-.27.17-.56.24-.84.53-.2,1.05-.41,1.56-.64-.5.41-.96.87-1.39,1.42Z"/>
      <path class="cls-1" d="M4098.55,751.49c-1.03.1-2.01.3-2.94.61.8-.55,1.56-1.18,2.24-1.94.3-.6.54-1.23.73-1.88,0,.57-.05,1.15-.05,1.72.66-.63,1.34-1.24,2.02-1.84-.71,1.06-1.39,2.16-2,3.33Z"/>
      <path class="cls-1" d="M4145.73,718.85c-1.14-.2-2.22-.27-3.26-.25,1.07-.42,2.15-.83,3.22-1.25h.01s0-.04,0-.07c1.96-.8,3.92-1.6,5.88-2.4-2.02,1.17-3.99,2.46-5.85,3.97Z"/>
      <path class="cls-1" d="M4177.78,701.98c4.69-3.44,8.48-7.51,11.54-12.08-2.98,4.96-6.95,8.89-11.54,12.08Z"/>
      <path class="cls-1" d="M4200.16,666.26c-.85,1.76-1.79,3.49-2.72,5.22.63-2.34,1.18-4.74,1.64-7.2-.05-.05-.1-.09-.15-.15.4.19.8.39,1.19.62,1.08.55,2.03,1.19,2.83,1.92-.79-.22-1.71-.36-2.79-.41Z"/>
      <path class="cls-1" d="M2081.09,746.7c0-5.27-.09-7.17-2.34-7.86,0-.94,0-1.88,0-2.83-2.41-.09-4.83-.26-7.24-.26-142.94-.01-285.89,0-428.83,0-2.11,0-4.24-.15-6.34.01-3.67.27-5.84-.87-5.45-4.99.11-1.19-.03-2.41-.03-3.62.04-80.36.06-160.72.13-241.08.01-11.37-.12-9.66,9.9-9.66,119.67-.06,239.35-.08,359.02-.14,3.29,0,6.58-.41,9.87-.63-.72-14.41.6-28.86-.97-43.25,0-.13,0-.25,0-.38,1.13-9.27.25-18.59.43-27.88.22-11.12.22-22.24.32-33.36.03-3.17.17-6.43-4.68-5.24-.02,0-.04.01-.06.02.07-.33.11-.68.08-1.08-3-.15-6.01-.44-9.01-.44-114.94-.02-229.88-.04-344.82-.02-6.02.01-12.04.35-18.06.54.16.08.31.18.47.28-.26-.03-.52-.04-.78-.07-2.32-1.26-2.04-3.49-2.05-5.58-.03-5.45-.01-10.9-.01-16.35.09-73.04.18-146.09.27-219.13.06.22.15.45.29.69,3.62-.1,7.24-.29,10.86-.29,116.87-.06,233.74-.1,350.61-.17,25.06-.02,50.13-.11,75.19-.17.17-1.2.49-2.39.49-3.58,0-36.22-.03-72.44-.04-108.66,0-2.42.18-4.86-1.98-6.63-3.91.12-7.83.34-11.75.34-182.43-.01-364.86-.05-547.29-.06-2.26-.56-4.51-1.27-6.75-2.16l-1.97,1.27c-.1,3.63-.37,7.26-.37,10.9-.01,174.4-.02,348.79-.01,523.19,0,102.03.04,204.07.06,306.1v.03s.04.06.05.09c-.91,1.9-.31,3.97-.41,5.97.38,1.44,1.76,2.01,2.65,3,9.33,1.21,18.69.3,28.03.3,154.35.01,308.69-.07,463.04-.1,24.16,0,48.32.11,72.49.14,3.75,2.01,7.75,3.53,11.56,5.43,3.84,1.92,4.93,1.28,5.42-3.12.11-.96.05-1.94.05-2.91,0-35.53.03-71.07-.03-106.6ZM1904.36,466.78c.23.09.46.18.69.26-.25,0-.5,0-.75,0,.02-.09.04-.17.06-.26ZM1883.46,466.49c-.06.19-.12.38-.18.56-.29-.02-.58-.03-.87-.04.35-.16.7-.33,1.05-.52ZM1836.17,466.87c-.41.04-.81.08-1.22.13-.08-.11-.16-.21-.24-.32-.15-.11-.3-.2-.46-.28.64.17,1.28.33,1.92.47ZM1829.27,466.7c-.07.08-.13.14-.2.21-.02-.06-.05-.12-.07-.17.09-.01.18-.03.27-.04ZM1758.46,434.02c.1.21.2.41.31.57-.34.05-.63,0-.31-.57ZM1686.02,366.19c9.87-2.94,20.04-2.22,29.93.48-9.38.07-18.76-.27-28.15-.17-.99.01-1.99.02-2.98.02.4-.11.8-.22,1.2-.33ZM1672.64,456.87c.2.09.41.17.61.25-.96-.1-1.93-.21-2.89-.33.69-.23,1.46-.28,2.28.08ZM1649.8,461.64c.13.03.27.01.4-.04.03.4.04.8.08,1.2.04.28.12.53.21.77-.25.03-.51.03-.76-.02.02-.03.04-.06.06-.1.14-.61.13-1.22,0-1.81ZM2022.58,32.33c-1.78.44-3.73.65-5.89.6,1.87-.6,3.8-.95,5.89-.6ZM1953.98,89.19c.66.13,1.3.31,1.89.64-.84-.12-1.68-.27-2.52-.43.21-.07.42-.13.62-.21ZM1685.18,18.35s.03,0,.05,0c-1.05.32-2.16.44-3.26.47,1.07-.17,2.14-.33,3.21-.46ZM1630.96,122.61c-.03.08-.05.16-.07.24,0-.05,0-.11-.01-.16.03-.03.05-.05.08-.08ZM1583.94,195.51c.11.46.14.93.12,1.4-.05-.47-.08-.93-.12-1.4ZM1618.84,138.01s-.06.03-.1.04c.05-.03.1-.06.16-.09.03-.02.05-.04.07-.06-.05.03-.09.08-.13.11ZM2024.06,804.3c.2-.62.5-1.22.93-1.77.29-.37.55-.75.82-1.13-.53.98-1.11,1.95-1.75,2.9ZM2057.8,753.94c-4.83,3.08-10.59,3.64-15.83,5.79,1.79-1.16,3.9-2.04,6.33-2.75,3.1-.89,7.65-.43,8.23-5.44-.02-.02-.03-.03-.05-.05,1.13-.47,2.28-.93,3.4.07.1.09.19.16.29.24-1,.15-1.87.66-2.37,2.14ZM2064.92,751.38c.05-.08.1-.17.15-.25.06.01.12.02.18.04-.11.09-.22.15-.33.22Z"/>
      <g>
        <polygon class="cls-1" points="1630.88 475.66 2009.77 475.66 2009.77 365.53 1632.69 365.53 1630.88 122.69 2068.34 122.69 2066.32 4.89 1498.56 4.28 1498.56 853.56 2081.07 853.56 2081.07 736.01 1630.88 736.01 1630.88 475.66"/>
        <polygon class="cls-1" points="3051.92 6.48 2817.9 339.05 2583.43 5.51 2435.1 6.7 2745.58 435.68 2446.1 852.59 2593.55 852.59 2817.9 533.89 3041.77 854.98 3189.92 852.59 2890.23 435.68 3198.17 5.86 3051.92 6.48"/>
        <polygon class="cls-1" points="6162.64 735.96 5708.57 734.42 5705.97 6.31 5575.39 6.47 5573.91 852.96 6162.95 848.56 6162.64 735.96"/>
        <polygon class="cls-1" points="4716.46 473.83 5095.35 473.83 5095.35 363.7 4718.27 363.7 4716.46 120.86 5153.92 120.86 5151.9 3.06 4584.14 2.45 4584.14 851.73 5166.65 851.73 5166.65 734.18 4716.46 734.18 4716.46 473.83"/>
      </g>
      <g>
        <path class="cls-1" d="M4294.55,1154.17s-.07-.04-.1-.06c-.04-.01-.08-.02-.12-.03l.22.09Z"/>
        <path class="cls-1" d="M4393.72,1172.8c-1.81-1.33-2.91-3.12-3.51-5.23-5.33-4.76-11.37-10.16-16.7-14.92-.82-.11-1.4-.54-1.65-1.45l-.04.05c-1.46-.12-2.79-.46-3.52-1.92-1.53,0-2.81-.45-3.55-1.91-1.5,0-2.9-.21-3.74-1.68-1.52.06-2.9-.21-3.77-1.64-1.95-.15-3.91-.29-5.25-2.03-29.75-9.49-62.47-11.61-90.77-25.33-1.53.02-2.89-.29-3.62-1.84-2.34-.39-4.24-1.48-5.54-3.52-4.08-2.01-7.27-4.89-9.08-9.15-1.53-.68-1.89-2.01-1.95-3.51-7.31-12.19-4.48-35.73,5.73-45.98l-.05.07c.81-.48,1.57-1.01,1.75-2.01,1-.25,1.61-.84,1.77-1.87,1.04-.16,1.64-.77,1.83-1.79,1.02-.15,1.6-.82,1.97-1.73,2.01-.91,3.98-1.89,5.44-3.63,1.19-.67,2.88-.4,3.61-1.92,24.05-8.59,50.35-7.74,75-1.72l-.19-.1c6.46,3.47,13.79,5.06,19.97,9.13,1.54,1.73,3.41,2.9,5.62,3.55,1.19,2,3.42,2.63,5.17,3.89.52.73,1.1,1.4,1.98,1.7.36.92.98,1.56,1.98,1.8l-.18-.17c3.14,2.99,5.16,1.67,6.67-1.61,1.5-.74,1.16-2.53,2.01-3.63l-.07.12c2.51-2.68,3.6-6.19,5.48-9.24l-.1.16c2.93-4.52-.16-6.73-3.39-8.88-.59-.7-1.15-1.43-2.14-1.56-1.29-1.9-3.33-2.74-5.29-3.68-1.5-1.72-3.38-2.86-5.55-3.54-1.57-2.67-4.64-2.63-7.01-3.85-3.26-2.65-6.98-4.32-11.07-5.21-1.22-2.23-3.86-.65-5.43-1.96-26.25-9.02-52.69-9.23-79.29-1.65-1.75.95-4.15-.24-5.61,1.69l.17-.07c-1.56,1.37-4.22-.22-5.47,1.97-4.01,1.04-7.86,2.42-10.94,5.34-1.14.71-2.92.37-3.48,2.05-11,5.5-18.78,14.01-23.58,25.3l.11-.16c-8.94,14.6-10,30.47-7.6,46.91l.32.37-.25.42c1.33,4.46.16,9.68,4.03,13.37v-.02c4.2,6.65,8.05,13.06,14.11,18.31l-.07-.05c.52.79,1.05,1.56,2.08,1.72,1.33,1.9,3.36,2.78,5.4,3.67,5.97,4.46,12.5,7.68,19.85,9.15,9.74,4.78,20.46,6.21,30.8,8.9,1.96,2.48,5.09.42,7.33,1.81,15.2,4.12,30.52,7.77,45.48,12.71,4.68,2.68,9.62,4.84,14.49,7.14,1.15,2.08,3.36,2.75,5.21,3.9.46.81,1.04,1.48,1.98,1.7.25.96.87,1.56,1.78,1.87.29.92.93,1.51,1.77,1.93,1.02,1.95,2,3.93,3.66,5.46,7.47,14.09,6.55,31.76-3.47,44.03-.96,2.67-2.76,4.52-5.38,5.59-.3,1.06-1.04,1.5-2.09,1.51-5.72,5.08-12.4,8.06-19.97,9.09-15.35,6.49-33.58,3.89-49.95,3.2-12.17-1.77-25.03-4.35-35.8-10.32-1.52.03-2.89-.27-3.71-1.73-2.84-.36-5.37-1.36-7.26-3.63-1.48-.11-2.81-.48-3.48-1.99-2.34-.36-4.22-1.5-5.67-3.36-2.26-.55-4.14-1.66-5.41-3.67-2.92-1.18-5.47-2.84-7.14-5.62-1.05-.06-1.75-.54-1.96-1.61-2.65-1.3-5.05-2.8-6.97,1.35-1.07,6.53-12.72,13.64-6.85,19.63,1.08.01,1.76.51,1.99,1.59,2.2.7,3.91,2.02,5.18,3.94,1.08-.07,1.84.34,2.12,1.45,2.34.44,4.15,1.65,5.38,3.7,1.5.08,2.75.58,3.42,2.05,3.42,1.15,6.63,2.66,9.21,5.28,1.52-.02,2.84.37,3.62,1.82,39.33,17.16,85.91,20.17,126.46,5.5.86-1.38,2.19-1.74,3.71-1.71,1.79-2.29,4.27-3.33,7.01-3.89,1.91-2.53,4.42-4.22,7.36-5.32,1.8-3.02,4.42-5.22,7.22-7.23,1.09-2.94,2.92-5.36,5.29-7.38,1.28-3.86,3.07-7.45,5.4-10.78l-.02.04c2.5-1.2.8-3.91,2.01-5.58l-.03.02c2.14-17.61,3.04-35.93-5.32-51.99Z"/>
        <path class="cls-1" d="M4267.15,1013.45s.06-.02.1-.03c.04-.02.08-.04.12-.06l-.22.09Z"/>
        <path class="cls-1" d="M4346.5,1015.05s.03.02.04.03c.04.02.09.03.13.04l-.17-.07Z"/>
        <path class="cls-1" d="M2293.8,1011.39c-7.77.41-21.05-2.71-21.45,8.72-2.03,52.57,4.47,106.15-3.42,158.18-10.08,38.29-34.08,75.2-85.35,71.96-37.03-1.81-53.94-20.54-71.21-50.1-9.32-20.29-8.92-43.61-9.49-65.52.01-40.97.02-81.93.03-122.9-5.72-.11-11.43-.27-17.15-.32-7.9-.08-8.2-.86-8.04,7.66,4.19,68.28-12.31,142.14,16.96,205.85,1.54.64,1.95,1.94,1.99,3.45l-.02.03c1.98,1.31,3.11,3.18,3.59,5.48,6.08,6.71,11.35,13.64,18.12,19.87,2.9,1.18,5.35,2.95,7.2,5.5,3.43,1.06,6.46,2.82,9.03,5.34l-.04-.02c.68,1.7,2.35,1.49,3.69,1.91,2.52,2.36,5.91,2.64,8.97,3.72,3.71,3.19,8.48,2.68,12.84,3.65l-.02-.04c17.96,2.06,35.92,2.13,53.89.16l-.06.04c2.74-2.06,6.6.84,9.15-2.06l-.22.09c1.71-1.14,4.25.25,5.65-1.82,3.06-1.11,6.36-1.61,9.05-3.62,1.23-.59,2.83-.41,3.67-1.78,1.17-.66,2.84-.4,3.53-1.93,4.05-1.69,7.78-3.87,10.81-7.11.94-.24,1.52-.94,2.09-1.67l-.06.05c27.42-22.76,39.15-60.89,40.05-95.57.49-47.71.44-95.43.67-143.13.2-3.22-1.55-4.14-4.46-4.07Z"/>
        <path class="cls-1" d="M1672.94,1251.18c-48.05.14-96.1.22-144.15.51-5.09.03-5.95-2.18-5.91-6.56.1-29.61.14-59.22.05-88.83-.71-7.02,5.41-5.73,10.25-5.76,34.15.01,68.31.03,102.46.03,17.85,0,17.8.01,16.04-17.9-.25-2.52-.89-3.99-3.62-3.94-38.99.11-77.98.1-116.97.14-7.99.01-8.07-.03-8.08-7.72-.04-25.68-.11-51.37-.01-77.05.04-10.31-1.28-9.62,9.88-9.62,42.31-.03,84.63,0,126.94,0,15.83,2.08,9.4-7.08,10.87-17.87.17-3.9-1.44-5.35-5.33-5.26-55.9.06-111.83.12-167.73.23-.39,87.32-.63,174.7.09,262.01,58.43.41,116.88.11,175.33.26,1.26-7.56,1.82-15.13-.11-22.68h0Z"/>
        <path class="cls-1" d="M3167.94,1011.47c-65.87-.05-131.74-.1-197.61-.15-10.41-.01-15.49,5.33-15.23,16.04.17,6.89.17,6.99,7.03,7.01,26.28.07,52.57.11,78.86.07,8.9-.02,7.66.23,7.66,8,.04,75.82-.04,151.64.04,227.46-.65,6.56,17.47,2.75,22.18,3.92,2.16.04,3.42-1.04,3.56-3.17.19-77.32-.1-154.67.2-231.98-.43-6.16,6.88-3.73,10.72-4.21,27.5-.05,54.99-.1,82.49-.15.61-7.6.55-15.2.1-22.81v-.03Z"/>
        <path class="cls-1" d="M5499.7,1255.93c.28-3.73-1.74-4.72-4.99-4.54-45.57.09-91.16.06-136.74.17-10.73.02-9.63.07-9.65-10.01-.05-26.85-.07-53.71.02-80.57.04-12.59-.81-10.35,10.75-10.4,39.24-.16,78.48-.19,117.72-.27-1.38-6.22,5.19-23.23-5.38-21.62-38.03.01-76.17.11-114.23.21-8.48.02-8.76,1.4-8.8-8.93-.18-26.88-.02-53.79-.14-80.67-.09-3.4.91-5.15,4.53-4.86,42.3.04,84.62.06,126.93-.02,15.97,2.12,17.91-.13,16-16.02.21-6.91,0-7.02-6.82-7.02-52.89-.03-105.78-.03-158.67.01-7.12.01-7.19.12-7.19,7.67.38,84.88-.68,169.83.49,254.67,58.46.06,116.93.13,175.39.2v.02c1.61-5.95.34-12.02.78-18.02Z"/>
        <path class="cls-1" d="M5233.48,1013c-68.23-4.88-141.46.15-211.18-1.53-.12,4.83-.29,9.65-.34,14.48-.1,9.21-.28,8.52,8.16,8.52,25.66,0,51.33.02,76.99.06,8.57.01,8.57.05,8.57,8.13-.08,75.46-.08,150.9-.19,226.36-.12,3.42,1.42,4.84,4.92,4.74,6.94-.19,13.88-.09,20.82-.11.81-76.99.07-154,.34-231,0-8.62-1.1-8.15,8.38-8.17,26.88-.05,53.77-.03,80.65-.03,2.54.03,4.04-1,3.91-3.71-.29-6.02,2.15-13.18-1.03-17.74Z"/>
        <path class="cls-1" d="M3924,1023.03c.09,67.08-.33,134.18.1,201.26.45,3.85-3.55,2.05-3.88-.51-1.07-.26-1.51-1-1.56-2.04-2.64-1.75-4.33-4.26-5.66-7.06-1.07-.23-1.57-.93-1.61-1.99-2.64-1.75-4.54-4.1-5.68-7.05-1.07-.24-1.54-.96-1.59-2.01-4.96-4.72-9.33-10.29-12.8-16.24-1.08-.22-1.57-.93-1.62-1.99-2.61-1.78-4.45-4.17-5.64-7.08-4.86-4.84-9.21-10.3-12.86-16.17-1.07-.27-1.53-.99-1.55-2.05-2.6-1.79-4.43-4.19-5.62-7.1-1.08-.24-1.53-.96-1.59-2.01-4.37-2.89-6.17-8.13-10.24-11.29-.3-.98-.62-1.96-.92-2.94-.98-.32-1.44-1.03-1.54-2.02-.51-.1-1.04-.15-1.56-.16-.02-.03-.05-.07-.07-.11.03-.45.03-.9-.02-1.36-.42-.11-.84-.15-1.26-.17-.13-.12-.24-.26-.38-.37,0-1.06-.46-1.77-1.43-2.05-9.43-13.45-20.94-25.55-29.99-39.15-1.08-.24-1.56-.95-1.58-2.02-7.46-7.82-14.17-16.37-20.13-25.24-2.63-1.76-4.47-4.16-5.6-7.11-3.5-3.25-6.74-6.71-8.87-11.06-2.64-1.76-4.37-4.23-5.61-7.1-3.1-2.47-5.64-5.4-7.26-9.06-3.14-2.46-5.45-5.56-7.21-9.11-1.07-.27-1.53-1.01-1.53-2.07-1.97-1.21-3.22-2.98-3.94-5.15-1.01-.16-1.6-.75-1.77-1.76-7-.07-14-.14-20.99-.21-.63,87.36-.79,174.85.11,262.21,8.2.09,16.41.17,24.61.26,0,.03,0,.05,0,.08l.12-.12s-.07,0-.11,0c3.99-64.96-1.09-131.96,2.28-197.6.11-3.16-2.85-8.36,3.75-9.15,1.33,2.76,3.22,5.06,5.53,7.05.12,1.04.83,1.61,1.65,2.11,1.5,2.65,3.28,5.07,5.66,7.01,1.35,3.85,4.54,6.21,7.28,8.94,0,1.15.74,1.73,1.68,2.16,1.34,2.76,3.2,5.1,5.6,7.02,1.26,3.93,4.58,6.22,7.25,9.04,1.22,3.95,4.59,6.19,7.17,9.05.12,1.07.83,1.67,1.72,2.11,1.36,2.7,3.26,5,5.51,7.01.16,1.02.88,1.61,1.69,2.11,1.5,2.61,3.23,5.02,5.61,6.92.09,1.07.82,1.64,1.65,2.12,1.46,2.66,3.29,5.02,5.6,7.01,1.34,3.84,4.66,6.12,7.19,9.01.15,1.04.88,1.62,1.68,2.15,1.22,1.75,1.83,3.98,3.86,5.1.09,1.08.78,1.66,1.72,2.02,1.6,3.71,4.8,6.13,7.34,9.08l-.16-.17c.25.99.93,1.58,1.75,2.09,1.49,2.63,3.36,4.97,5.57,7.03,1.48,3.84,4.85,6.15,7.37,9.16l-.03-.04c3.16,2.41,5.48,5.49,7.2,9.05,3.22,2.38,5.59,5.44,7.25,9.07,2.63,1.76,4.37,4.23,5.63,7.08,1.06.23,1.57.91,1.6,1.98,1.09.22,1.54.97,1.62,2.01,2.75,1.66,4.44,4.16,5.69,7.03,1.08.25,1.58.95,1.59,2.03,2.57,1.8,4.48,4.13,5.62,7.08,1.08.22,1.58.92,1.64,1.98,2.1,1.09,3.25,2.94,4.03,5.08,1.06.26,1.53.98,1.56,2.03,2.61,1.77,4.44,4.17,5.69,7.04,1.07.26,1.5,1.01,1.55,2.04,2.74,1.61,4.38,4.12,5.65,6.93.04,1.12.65,1.8,1.64,2.17,1.26,2.78,3.16,5.06,5.49,6.99.52,1.68,2.43,1.2,3.41,2.18,7.08-.1,14.16-.19,21.24-.28.58-87.32,1.01-174.79-.07-262.09-10.15,1.21-28.08-5.21-25.25,11.39Z"/>
        <path class="cls-1" d="M4679.83,1011.49c-9.96-1.34-18.19.56-22.49,10.82-5.12,10.24-11.21,20.09-17.81,29.31-4.17,8.17-8.83,16.24-14.49,23.59-4.05,8.22-8.84,16.27-14.45,23.63-1.01,3.51-2.9,6.49-5.48,9.04-3.92,8.38-9.04,16.4-14.42,23.65-2.02,4.45-4.29,8.74-7.66,12.35-.88,2.99-2.14,5.7-5.33,7.6-2.33-3.95-5.12-6.94-6.11-11-1.81-1.45-3.11-3.23-3.48-5.58-1.48-.65-1.93-1.92-2.08-3.38-1.96-1.37-3.02-3.29-3.44-5.61-2.73-2.47-4.37-5.6-5.44-9.07-2.77-2.43-4.35-5.59-5.52-9-1.92-1.41-2.95-3.35-3.4-5.65-1.49-.64-1.98-1.89-2.07-3.39-1.97-1.36-3.01-3.3-3.45-5.6-2.78-2.43-4.34-5.6-5.5-9.02-1.92-1.41-3.02-3.31-3.41-5.64-1.44-.66-2.05-1.85-2.08-3.38-1.93-1.41-2.97-3.34-3.42-5.64-1.54-.64-2.03-1.89-2.03-3.43-2.71-2.46-4.49-5.5-5.52-8.99-2.7-2.48-4.37-5.58-5.5-9.01-1.11-.32-1.5-1.1-1.41-2.19-3.3-3.68-5.83-7.82-7.48-12.49-2.83-2.39-4.4-5.55-5.55-8.97-2.78-2.5-4.21-5.76-5.25-9.25-2.27-1.38-3.17-4.63-7.36-3.46-6.06,1.68-12.45,2.01-18.49.23-4.67-1.37-4.15,1-4.42,2.75,2.75,2.42,4.5,5.47,5.6,8.92,1.87,1.43,3.07,3.27,3.44,5.62,1.49.64,1.92,1.93,2.07,3.39,1.91,1.42,3.02,3.32,3.37,5.67,2.73,2.44,4.41,5.53,5.57,8.95,1.99,1.35,3.07,3.26,3.48,5.59,1.48.64,1.9,1.93,2.09,3.37,1.97,1.37,3.08,3.26,3.43,5.62,2.79,2.43,4.36,5.59,5.51,9.01,1.92,1.38,3.07,3.24,3.5,5.56,4.51,5.41,7.91,11.67,11.1,17.94,5.61,7.4,10.32,15.43,14.46,23.63,1.95,1.37,2.99,3.31,3.44,5.61,2.71,2.47,4.36,5.59,5.52,9,1.94,1.37,2.97,3.32,3.46,5.59,1.48.63,1.98,1.87,2.12,3.35,1.82,1.47,2.93,3.36,3.43,5.63,1.5.63,1.92,1.92,2.08,3.38,1.8,1.48,3.04,3.3,3.41,5.64,1.89,1.41,2.98,3.32,3.46,5.6,1.5.61,1.99,1.86,2.14,3.33,1.81,1.42,3.02,3.24,3.57,5.49,4,2.87,3.82,7.09,3.8,11.34-.13,27.59-.23,55.18-.26,82.77,0,3.19-1.03,6.66,1.67,9.41,5.42-.02,10.85-.08,16.27-.05,7.97.05,7.97.08,7.97-7.84-.14-27.75.2-55.52.27-83.28.02-4.49-.42-9.19,3.99-12.28,1.56-4.72,4.41-8.66,7.61-12.38-.1-1.09.31-1.86,1.41-2.17,1.23-3.37,2.81-6.53,5.54-8.98.39-2.34,1.59-4.17,3.45-5.6,1.07-3.48,2.93-6.46,5.6-8.94.29-2.39,1.49-4.22,3.46-5.58.13-1.47.6-2.74,2.06-3.41.37-2.34,1.5-4.22,3.46-5.59.08-1.5.63-2.72,2.06-3.41,1.49-4.24,3.81-7.95,6.93-11.17,1.21-3.39,2.76-6.56,5.56-8.97.07-1.51.58-2.76,2.08-3.4-.06-1.06.31-1.85,1.39-2.18,1.01-3.51,2.88-6.49,5.53-8.99.08-1.5.59-2.75,2.06-3.41.39-2.33,1.56-4.18,3.44-5.6.06-1.53.57-2.77,2.09-3.4-.04-1.06.35-1.84,1.43-2.15,1.05-3.49,2.85-6.51,5.57-8.96.11-1.48.62-2.73,2.07-3.4.42-2.33,1.59-4.18,3.5-5.56.4-2.32,1.62-4.15,3.42-5.62.11-1.5.65-2.73,2.13-3.36,1.67-4.12,3.68-8.03,6.97-11.13.1-1.49.51-2.79,2.02-3.45.43-2.31,1.57-4.19,3.43-5.62.13-1.49.69-2.71,2.16-3.33h-.04c.55-5.99-8.18-2.15-11.81-3.42Z"/>
        <path class="cls-1" d="M6142.74,1176.62c-2.5-2.59-4.09-5.73-5.51-8.99-1.11-.23-1.54-.97-1.56-2.03-3.44-2.59-6.41-5.66-9.11-8.99-2.17-.69-4.02-1.84-5.31-3.77-2.25-.51-4.13-1.64-5.64-3.39-1.51-.04-2.82-.43-3.53-1.93-1.49-.01-2.89-.25-3.75-1.67-27.17-11.25-58-13.25-85.25-23.59-4.03-.03-7.51-1.59-10.76-3.79-1.54.09-2.91-.2-3.75-1.68-1.52.02-2.89-.27-3.65-1.79-23.67-8.8-27.15-42.79-12.64-60.59,14.22-26.24,68.77-25.7,93.05-16.28,3.48.08,6.5,1.35,9.18,3.51,1.48.05,2.83.37,3.65,1.78,1.5.04,2.83.4,3.57,1.89,1.5.09,2.74.59,3.43,2.04,2.35.38,4.25,1.47,5.52,3.55,1.03.02,1.8.42,2.1,1.47,6.01,2.22,7.82,11.21,13.96,2.19l-.04.07c1.39-1.73,2.77-3.48,3.36-5.68,1.6-.64,1.17-2.5,2.06-3.57l-.04.06c2.01-3.94,1.88-7.53-1.77-10.52-3.04-.95-5.45-2.79-7.44-5.23-3.34-1.29-6.47-2.91-9.02-5.49-1.5-.03-2.83-.4-3.56-1.89-1.49-.05-2.77-.51-3.56-1.89-1.52.05-2.91-.19-3.76-1.66-31.47-12.38-67.32-12.38-99.27-1.9-3.26,2.59-7.12,3.95-10.97,5.34-.7,1.45-1.99,1.88-3.46,1.99-8.34,6.3-15.69,13.5-21.7,21.76-.67,2.68-1.74,5.16-3.75,7.14,0,1.49-.26,2.87-1.65,3.76-5.58,17.92-6.54,35.85-.11,53.8,1.41.79,1.73,2.14,1.82,3.6,4.22,5.96,8.79,11.42,14.39,16.44,8.03,4.76,16.51,9,25.32,12.76,10.41,2.77,21.12,5.3,30.98,8.9,16.06,2.64,32.49,6.7,47.33,12.51,2.03-.04,3.92.27,5.27,2.02,13.36,3.68,27.42,12.9,31.05,27.11,5.98,17.11,1.07,39.97-16.29,48.05-18.6,11.41-45.82,13.95-71.98,9.86.36,0,.72.01,1.08.01h0c-2.84-2.17-6.86-.8-9.62-3.22-4.53-.15-8.8-1.25-12.7-3.63-3.49-.04-6.47-1.44-9.2-3.48-1.51-.01-2.85-.36-3.7-1.74-2.8-.44-5.34-1.42-7.27-3.62-1.45-.15-2.78-.52-3.5-1.96-8.02-3.42-14.66-8.88-21.22-14.44-4.13-3.49-5.63-1.33-6.23,2.85.2-.06.4-.09.6-.13-.17.12-.34.25-.51.4,0-.01,0-.03,0-.04-1.74,1.59-2.99,3.46-3.32,5.85.08-.03.15-.07.22-.1-1.65,2.03-3.59,3.89-5.04,6.01-2.21,5.5,3.79,6.56,5.42,9.98,2.22.64,4.05,1.81,5.26,3.84,4.04,1.79,7.77,4.07,10.99,7.13,1.48.09,2.8.46,3.53,1.92,1.53-.01,2.79.48,3.56,1.89,1.53-.05,2.84.36,3.63,1.81,1.52-.04,2.86.31,3.72,1.71,3.35.41,6.31,1.73,9.01,3.7,27.31,9.67,61.86,12.18,91.23,5.44-.23.16-.46.31-.68.48h0c2.96.8,5.73-.86,8.65-.68,1.54-1.55,3.52-1.69,5.54-1.69,2.8-1.86,5.78-3.23,9.2-3.46.88-1.28,2.15-1.74,3.63-1.81.75-1.44,2.04-1.87,3.55-1.91.72-1.36,1.98-1.83,3.39-2.06.37-.99,1.1-1.46,2.14-1.46,1.25-1.9,3-3.18,5.12-3.96.24-1.01.89-1.56,1.9-1.7.22-1.01.85-1.58,1.87-1.75.17-1.02.77-1.63,1.78-1.84.15-1.01.71-1.65,1.71-1.88.24-1.02.49-2.05.73-3.08-.01,0-.02,0-.04,0,13.29-15.9,18.13-38.44,8.38-68.66Z"/>
        <path class="cls-1" d="M4947.81,1188.48c-.21-2.24-.42-4.49-.63-6.73-1.31-.98-1.56-2.38-1.52-3.88-1.38-.84-1.76-2.16-1.77-3.66-1.37-.75-1.87-2-2-3.46-1.01-.77-2-1.53-3.01-2.31-.02-.03-.03-.06-.05-.1,0,0,.01,0,.02.01,0,0,.01.01.02.02v-.02s0,0,0,0c-.26-.98-.55-1.97-.83-2.95-1-.28-1.5-.97-1.61-1.98-1.03-.2-1.59-.85-1.75-1.87-1.03-.17-1.65-.76-1.83-1.8-1.02-.15-1.67-.71-1.89-1.73-1-.11-1.67-.63-1.96-1.61-1-.32-1.99-.64-2.98-.96.06.11.13.22.2.33-26.07-20.33-63.12-22.05-94.5-31.3-9.69-2.55-19.77-4.88-27.8-11.7-1.54-.06-2.79-.56-3.35-2.14-1.1-.02-1.78-.55-1.98-1.65-1.09-.06-1.76-.6-1.92-1.71-1.1-.14-1.66-.8-1.76-1.88-19.61-19.81-6.09-61.14,21.69-67.84,25.21-8.21,56.08-7.85,80.35,3.9,1.52-.02,2.88.29,3.66,1.78,1.52-.01,2.86.34,3.61,1.84,2.37.33,4.22,1.51,5.62,3.43,2.3.5,4.06,1.79,5.35,3.75,1.06,0,1.76.49,2.03,1.54,2.94,1.15,4.86,3.6,7.18,5.54l.47-.3.49.25c.2-1.01.83-1.57,1.84-1.71.12-1.46.47-2.79,1.94-3.51.05-1.5.52-2.77,1.97-3.49.37-2.33,1.42-4.26,3.26-5.76.36-2.28,2.35-4.05,2.05-6.54-1.04-.19-1.59-.84-1.75-1.85-1.05-.05-1.76-.52-1.99-1.59-2.18-.7-4.1-1.75-5.27-3.83-2.27-.51-4.14-1.64-5.47-3.59-4.58-1.81-8.97-3.98-12.8-7.13-3.32-.43-6.27-1.75-8.86-3.86-3.9-.41-7.5-1.74-10.94-3.56-2.58.04-5.12-.1-7.29-1.77-40.66-5.46-89.83-1.76-113.56,36.41-.12,1.46-.45,2.8-1.87,3.58-9.27,21.37-10.03,45.93,1.58,66.54,1.93,1.24,3.2,2.99,3.96,5.13,1.05.19,1.59.85,1.69,1.89,1.05.12,1.68.67,1.84,1.73,34.92,26.97,83.1,24.2,121.48,43.6,1.54,0,2.81.48,3.48,2,2.36.34,4.27,1.42,5.61,3.44,5.92,2.81,10.52,8.76,12.51,14.79,8.42,16.37,3.5,42.71-14.52,51.18-.68,1.49-1.97,1.93-3.46,2.01-.81,1.46-2.18,1.75-3.68,1.76-27.51,13.62-73.86,8.85-100.18-5.71-1.45,0-2.84-.23-4.19-.61-1.76-1.35-3.51-2.7-5.26-4.05-1.44-.19-2.76-.58-3.44-2.04-.87-.15-1.75-.31-2.62-.46-.18-.13-.35-.26-.53-.39,0,0,0,0,0,0,0,0,.01,0,.02,0h-.01s0,0,.01-.01h0c-.78-1.04-1.56-2.07-2.34-3.11-1.02-.23-2.04-.45-3.07-.68-2.16-2.17-3.91-4.81-7.03-5.47-2-2.23-4.06-4.3-7.27-4.59-2.08,4.4-3.74,9.06-7.35,12.57-3.61,7.72-3.56,7.66,3.47,13.14,2.51,1.96,5.56,3.26,7.44,6,28.6,18.2,62.51,27.48,96.7,25.62,30.68-.26,63.23-9.53,80.32-36.36.05-1.51.52-2.77,1.97-3.49-.05-1.52.24-2.88,1.64-3.77,4.85-13.85,4.54-28.38,3.67-42.86-.45-.03-.87-.17-1.25-.42Z"/>
        <polygon class="cls-1" points="4945.38 1232.1 4945.39 1232.09 4945.39 1232.09 4945.38 1232.1"/>
        <path class="cls-1" d="M2715.66,1275.91h-.03s-.02.04-.03.06l.06-.06Z"/>
        <path class="cls-1" d="M2927.89,1271.18c-1.37-.88-1.67-2.25-1.69-3.74-1.49-.84-1.72-2.24-1.67-3.76-2.14-2.62-3.36-5.62-3.74-8.97-2.08-2.68-3.26-5.72-3.59-9.1-2.23-2.57-3.38-5.6-3.77-8.95-2.56-3.94-4.45-8.15-5.34-12.78-1.42-.86-1.77-2.2-1.7-3.73-1.74-1.29-2.04-3.19-2.13-5.16-1.41-.92-1.61-2.33-1.57-3.84-2.17-2.6-3.41-5.58-3.77-8.94-1.43-.88-1.68-2.28-1.63-3.8-1.78-1.28-2-3.21-2.12-5.17-1.38-.93-1.63-2.33-1.55-3.85-2.12-2.62-3.43-5.58-3.77-8.95-2.66-3.91-4.62-8.11-5.29-12.84-2.18-2.59-3.48-5.56-3.77-8.94-1.43-.9-1.67-2.29-1.6-3.82-2.12-2.62-3.42-5.59-3.75-8.96-1.43-.88-1.72-2.25-1.63-3.79-1.71-1.29-2.11-3.14-2.17-5.13-1.42-.9-1.63-2.31-1.61-3.81-2.18-2.61-3.4-5.61-3.73-8.98-1.44-.87-1.7-2.26-1.64-3.78-2.14-2.62-3.41-5.6-3.72-8.99-2.12-2.64-3.43-5.61-3.7-9-1.44-.87-1.72-2.24-1.65-3.77-2.16-2.62-3.37-5.64-3.69-9.01-2.08-2.64-3.51-5.55-3.76-8.95-2.68-3.89-4.48-8.15-5.33-12.79-2.11-2.64-3.45-5.6-3.71-9-2.63-3.91-4.56-8.11-5.34-12.78-1.4-.89-1.71-2.25-1.63-3.78-1.71-1.3-2.12-3.15-2.15-5.15-3.96-6.83-6.84-14.31-8.98-21.83-6.54-4.17-15.52-.82-22.97-1.74-21.66,50.07-41.24,100.99-63.45,150.5.02,1.5-.28,2.87-1.65,3.77-6.27,17.83-13.91,35.39-21.84,52.53-5.3,14.63-11.23,29.35-18.15,43.51.11,3.89-3.68,6.75-2.88,12h25.57c9.74-19.87,17.43-43.25,26.68-64.25,5.2-17.27,7.34-20.27,25.82-17.61,30.44-.18,60.88-.11,91.32-.08,3.76,0,7.74-.97,9.68,4.22,10.44,25.96,20.76,51.96,32.2,77.48,7.84.09,15.68.08,23.51.32,4.11.12,3.07-2.58,3.06-4.84v.03ZM2755.35,1169.91c17.8-42.8,35.24-84.72,53.55-128.73,17.78,43.97,34.75,85.92,52.06,128.73h-105.61Z"/>
        <path class="cls-1" d="M1979.07,1110.91c-3.8-14.42-7.89-28.35-14.33-41.85-1.48-.7-1.87-2-1.97-3.48-9.63-14.31-22.03-26.87-36.01-36.5-1.05.03-1.84-.34-2.19-1.4-1.44-.16-2.79-.49-3.45-1.99-2.71-.62-5.24-1.6-7.21-3.67-1.49-.03-2.87-.29-3.69-1.75-44.05-15.41-91.78-7.27-137.54-9.32-4.66-.07-5.82,1.91-5.44,5.95.41,85.46-.74,171,.4,256.44,33.12.25,66.23.2,99.35.29l.63-.45.67.38c7.91-1.25,15.81-2.51,23.72-3.76l-.02.03c1.74-1.11,4.22.22,5.7-1.72,12.45-2.53,23.34-10.62,34.23-16.48.26-1.08.99-1.55,2.06-1.54,1.18-1.99,2.95-3.23,5.07-4.04.21-1.05.87-1.59,1.92-1.66,1.27-2.39,3.24-4.04,5.6-5.27.12-1.08.72-1.69,1.79-1.83.1-1.07.66-1.72,1.73-1.89.08-1.06.63-1.7,1.69-1.89.73-2.17,1.9-4,3.94-5.18.02-1.06.49-1.78,1.57-2.03.61-2.22,1.81-4.04,3.72-5.35,3.94-7.14,7.39-14.81,10.76-21.86.08-1.99.26-3.93,1.93-5.34.02-2.01.2-3.97,1.79-5.46,6.13-25.4,6.91-51.49,3.56-77.38h.02ZM1949.48,1182.64c-19.15,72.49-90.28,71.65-151.96,69.66-4.78.09-5.33-2.21-5.31-6.1.13-34.43,0-68.86.04-103.29h.05c0-33.22-.01-66.44,0-99.66,0-8.8-.76-8.2,8.42-8.2,19.34,0,38.68.4,58,.03,68.39-5.71,114.31,76.48,90.76,147.56Z"/>
        <path class="cls-1" d="M3624.55,1105.85c-1.99-3.42-3.03-7.14-3.43-11.05-1.95-2.71-3.38-5.63-3.69-9.01-1.44-.85-1.72-2.22-1.69-3.73-2.11-1.97-3.21-4.44-3.64-7.24-1.45-.72-1.89-2-1.95-3.49-4.18-5.05-7.71-10.54-11.04-16.17-1.08-.21-1.57-.91-1.62-1.97l-18.14-18.09c-2.96-1.08-5.32-2.98-7.3-5.39-2.24-.57-4.08-1.75-5.4-3.68-3.38-1.22-6.61-2.69-9.17-5.32-39.43-19.07-87.64-13.87-122.47,12.76-.28,1.05-1.03,1.48-2.05,1.53-.21,1.07-.88,1.61-1.96,1.67-9.95,9.68-18.95,19.82-27.01,30.98-1.16,3.41-2.72,6.59-5.28,9.2-2.74,7.39-5.92,14.74-9.22,21.62-8.52,28.72-8.45,59.74-.12,88.45,1.65,1.4,1.96,3.3,1.96,5.31,1.95,2.73,3.17,5.75,3.61,9.08,1.46.82,1.77,2.18,1.73,3.71,2.05,1.98,3.2,4.42,3.66,7.21,2.65,2.48,4.37,5.54,5.62,8.9,2.39,2.02,4.27,4.41,5.25,7.43,3.11,2.43,5.54,5.43,7.5,8.84,1.07.16,1.63.79,1.73,1.86,1.08.12,1.7.72,1.82,1.8,1.08.13,1.67.75,1.8,1.83,1.07.09,1.71.64,1.85,1.72,5.42,4.25,10.85,8.5,16.27,12.75,1.56.02,2.72.67,3.35,2.14,2.34.36,4.27,1.42,5.73,3.3,1.53-.03,2.87.31,3.62,1.81,30.68,14.09,66.2,14.28,97.28,1.91.87-1.38,2.23-1.7,3.73-1.69,1.84-2.26,4.4-3.18,7.14-3.75,2.47-2.69,5.68-4.19,8.96-5.57,1.92-2.49,4.41-4.2,7.29-5.4.18-1.1.84-1.63,1.93-1.67,5.45-5.43,10.91-10.85,16.36-16.28.02-1.08.52-1.77,1.62-1.96,1.1-2.95,2.86-5.41,5.42-7.27.51-2.27,1.81-4.03,3.6-5.46.09-1.5.55-2.78,2.08-3.4,2.47-6.33,5.62-12.32,8.95-18.23,1.27-5.61,3.13-11.02,5.51-16.26-.01-2.58.11-5.13,1.74-7.32,3.76-21.95,3.09-44.48-1.9-66.43l-.03.02ZM3564.52,1229.91h0c-102.78,81.32-203.47-70.28-131.9-159.24,105.42-119.43,237.75,66.35,131.89,159.24Z"/>
        <polygon class="cls-1" points="3261.94 1010.91 3261.83 1273.91 3287.94 1273.91 3287.83 1010.91 3261.94 1010.91"/>
        <polygon class="cls-1" points="2599.56 1063.47 2599.54 1063.44 2599.56 1063.47 2599.56 1063.47"/>
        <path class="cls-1" d="M2589.18,1208.02c-39.54,46.95-94.12,51.78-130.3,28.89-15.81-9.49-27.63-24.91-36-41.21-14.3-26.51-18.54-58.66-9.72-87.73,16.58-60.32,75.5-93.01,134.14-68.02,10,4.55,24.88,15.27,32,22.8l18.1-12.66c-28.34-38.64-65.72-44.47-98.19-41.88-108.38,6.8-152.38,141.44-84.76,220.2,14.58,16.85,32.79,31.41,54.05,38.87,40.66,13.95,85.4,4.36,118.09-23.39,6.95-6.26,20.61-22.19,20.61-22.19l-14.79-11.4-3.22-2.27Z"/>
        <path class="cls-1" d="M5685.7,1179.27s0,0,0,0l-.1-.14s.06.09.09.13Z"/>
        <path class="cls-1" d="M5717.7,1180.42l-.49.18-95.59-164.69h-29.68v258h25.91c-.31-36.53,1.17-210.75,1.17-210.75l59.98,104.2-.15-.05,1.87,3.07c1.88,3.17,11.94,20.04,13.03,21.4l12.28,20.17,23.32.96c1.2-1.5,23.7-40.69,23.7-40.69l-.13.17,61.52-106.88s1.48,174.22,1.17,210.4h26.35v-257h-30.12l-94.12,161.51Z"/>
      </g>
    </g>
  </g>
</svg>